<?xml version="1.0" encoding="UTF-8"?>
<svg id="Capa_1" data-name="Capa 1" xmlns="http://www.w3.org/2000/svg" viewBox="0 0 348.86 171.59">
  <defs>
    <style>
      .cls-1 {
        fill: #fff;
      }

      .cls-2 {
        fill: #36a9e1;
      }

      .cls-3 {
        fill: #008d36;
      }

      .star1 {
        transform : translate(1%, 15%);
        animation: moveStar 1s .10s both;
  
      }

      @keyframes moveStar {
        100% {
          transform: unset;

        }
      }
    </style>
  </defs>
  <rect class="cls-3" width="348.86" height="171.59"/>
  <rect class="cls-2" width="348.86" height="85.8"/>
  <polygon class="cls-1" points="174.43 56.41 180.92 76.92 201.91 76.92 184.93 89.59 191.42 110.1 174.43 97.42 157.45 110.1 163.93 89.59 146.95 76.92 167.94 76.92 174.43 56.41"/>
  <g>
    <path class="cls-1 star1" d="m19.26,80.07c4.32.98,8.58,2.07,12.8,3.27,3.28-4.23,6.7-8.27,10.25-12.12-1.04,4.83-1.87,9.65-2.5,14.46,4.15,1.33,8.23,2.75,12.26,4.28-4.38,1.28-8.78,2.81-13.21,4.6-.38,4.78-.57,9.53-.57,14.23-2.62-3.46-5.17-6.99-7.65-10.6-4.43,2.12-8.87,4.52-13.29,7.2,2.77-4.85,5.7-9.52,8.79-13.98-2.38-3.71-4.68-7.48-6.89-11.33Z"/>
    <path class="cls-1 star1" d="m332.02,80.07c-2.22,3.85-4.52,7.63-6.89,11.33,3.09,4.47,6.03,9.13,8.79,13.98-4.42-2.68-8.86-5.08-13.29-7.2-2.47,3.61-5.02,7.15-7.65,10.6,0-4.71-.18-9.45-.57-14.23-4.42-1.79-8.83-3.32-13.21-4.6,4.03-1.53,8.12-2.96,12.26-4.28-.63-4.81-1.46-9.63-2.5-14.46,3.55,3.85,6.98,7.89,10.25,12.12,4.21-1.2,8.48-2.29,12.8-3.27Z"/>
    <path class="cls-1 star1" d="m292.57,39.99c-1.11,4.26-2.31,8.47-3.61,12.64,3.98,3.17,7.85,6.53,11.6,10.08-4.75-1.04-9.46-1.84-14.11-2.41-1.41,4.11-2.91,8.17-4.5,12.17-1.15-4.33-2.5-8.66-4.04-12.97-4.57-.29-9.06-.36-13.47-.23,3.38-2.65,6.84-5.24,10.37-7.74-1.79-4.29-3.79-8.55-5.98-12.77,4.3,2.55,8.51,5.29,12.63,8.22,3.63-2.41,7.33-4.74,11.11-6.99Z"/>
    <path class="cls-1 star1" d="m248.44,15.18c-.01,4.37-.12,8.73-.33,13.06,4.54,1.95,9.02,4.09,13.41,6.42-4.74.33-9.38.87-13.92,1.59-.34,4.31-.77,8.59-1.3,12.84-2.14-3.81-4.46-7.57-6.98-11.28-4.4.95-8.68,2.08-12.84,3.37,2.56-3.44,5.21-6.84,7.95-10.18-2.76-3.64-5.7-7.2-8.84-10.69,4.73,1.32,9.41,2.84,14.03,4.55,2.85-3.28,5.8-6.51,8.83-9.67Z"/>
    <path class="cls-1 star1" d="m198.97,2.64c1.11,4.22,2.12,8.45,3.03,12.69,4.84.69,9.66,1.58,14.43,2.66-4.43,1.58-8.72,3.31-12.87,5.2.78,4.24,1.46,8.48,2.04,12.71-3.01-3.11-6.2-6.13-9.56-9.06-3.97,2.06-7.78,4.25-11.44,6.57,1.57-3.98,3.24-7.94,5-11.88-3.58-2.8-7.32-5.49-11.24-8.06,4.88.07,9.76.34,14.63.79,1.89-3.9,3.88-7.78,5.97-11.62Z"/>
    <path class="cls-1 star1" d="m148.03,3.19c2.17,3.8,4.25,7.63,6.22,11.49,4.85-.56,9.73-.93,14.61-1.11-3.85,2.65-7.54,5.42-11.06,8.3,1.85,3.9,3.61,7.82,5.27,11.77-3.71-2.24-7.57-4.35-11.58-6.32-3.3,3-6.42,6.09-9.36,9.27.48-4.25,1.07-8.5,1.76-12.76-4.19-1.79-8.52-3.43-12.99-4.91,4.76-1.18,9.56-2.18,14.38-2.98.81-4.25,1.73-8.5,2.75-12.75Z"/>
    <path class="cls-1 star1" d="m101.43,15.74c3.06,3.14,6.03,6.35,8.91,9.6,4.61-1.75,9.28-3.3,14-4.66-3.11,3.51-6.03,7.1-8.76,10.76,2.77,3.32,5.45,6.7,8.03,10.12-4.17-1.26-8.47-2.35-12.87-3.27-2.49,3.73-4.79,7.52-6.9,11.34-.57-4.25-1.03-8.53-1.4-12.83-4.54-.69-9.2-1.19-13.94-1.48,4.38-2.37,8.84-4.54,13.37-6.53-.24-4.33-.39-8.69-.43-13.06Z"/>
    <path class="cls-1 star1" d="m55.74,42.27c3.82,2.17,7.58,4.43,11.25,6.76,4.06-3.02,8.23-5.85,12.49-8.48-2.12,4.27-4.04,8.58-5.76,12.9,3.59,2.43,7.1,4.95,10.53,7.53-4.42-.04-8.92.13-13.48.51-1.47,4.35-2.74,8.71-3.82,13.07-1.67-3.98-3.24-8.01-4.73-12.09-4.64.67-9.35,1.57-14.09,2.72,3.69-3.64,7.51-7.09,11.44-10.35-1.37-4.15-2.65-8.34-3.84-12.58Z"/>
  </g>
</svg>