<?xml version="1.0" encoding="utf-8"?>
<!-- Generator: Adobe Illustrator 27.1.1, SVG Export Plug-In . SVG Version: 6.00 Build 0)  -->
<svg version="1.1" id="Capa_1" xmlns="http://www.w3.org/2000/svg" xmlns:xlink="http://www.w3.org/1999/xlink" x="0px" y="0px"
	 viewBox="0 0 675 423.7" style="enable-background:new 0 0 675 423.7;" xml:space="preserve">
<style type="text/css">
	.st0{fill:#6C63FF;}
	.st1{fill:#2F2E41;}
	.st2{fill:#E2E14C;stroke:#000000;stroke-miterlimit:10;}
	.st3{fill:#E0E157;stroke:#000000;stroke-miterlimit:10;}
	.st4{fill:#EFEC94;stroke:#000000;stroke-miterlimit:10;}
	.st5{fill:#DCDD39;stroke:#000000;stroke-miterlimit:10;}
	.st6{fill:#FFF8D5;stroke:#000000;stroke-miterlimit:10;}
	.st7{fill:#FFFFFF;stroke:#000000;stroke-miterlimit:10;}
</style>
<path class="st0" d="M558.5,163.3l-33.7,28.9l-52.8,45.3l-7.1,6.1c-1.3,1.1-2.1,2.7-2.3,4.5c-0.1,1.2,0.2,2.5,0.8,3.6
	c0.2,0.4,0.5,0.8,0.8,1.2l3.8,4.5l5.8,6.8c0.1,0.1,0.2,0.2,0.3,0.3c2.4,2.4,6.3,2.6,8.9,0.3l59.8-51.4l33.7-29
	c2.7-2.4,3-6.5,0.7-9.2l-2-2.4l-7.6-8.9C565.4,161.3,561.3,161,558.5,163.3C558.5,163.3,558.5,163.3,558.5,163.3L558.5,163.3z"/>
<circle class="st0" cx="584.2" cy="85.3" r="53.7"/>
<path class="st1" d="M588.1,293.8v123.4c0,3.6,2.9,6.5,6.5,6.5h14.8c3.6,0,6.5-2.9,6.5-6.5V293.8c0-3.6-2.9-6.5-6.5-6.5h-14.8
	C591.1,287.2,588.1,290.2,588.1,293.8z"/>
<path class="st1" d="M556.9,293.8v123.4c0,3.6,2.9,6.5,6.5,6.5c0,0,0,0,0,0h14.8c3.6,0,6.5-2.9,6.5-6.5V293.8c0-3.6-2.9-6.5-6.5-6.5
	h-14.8C559.8,287.2,556.9,290.2,556.9,293.8C556.9,293.8,556.9,293.8,556.9,293.8z"/>
<path class="st1" d="M562.9,310.7c-20.5,0-37.1-16.6-37.1-37.1c0-2.8,0.3-5.5,0.9-8.2l16.7-73.4c0-22.8,18.6-41.3,41.4-41.2
	c8.6,0,17,2.7,24,7.7c10.8,7.8,17.2,20.3,17.3,33.6c0,0.7,2.4,68.9,3.3,100.5c0.3,9-6.8,16.6-15.9,16.9c0,0-0.1,0-0.1,0l-49.5,1.3
	C563.7,310.6,563.3,310.7,562.9,310.7z"/>
<path class="st1" d="M538.9,109l0.1-2c-3.7-0.1-7-0.3-9.5-2.1c-1.4-1.1-2.3-2.8-2.4-4.5c-0.1-1.1,0.3-2.2,1.2-2.9
	c1.6-1.4,4.3-0.9,6.2-0.1l1.7,0.8l-3.2-23.3l-2,0.3l2.7,19.8c-2.6-0.8-5-0.4-6.7,1c-1.3,1.1-2,2.8-1.9,4.5c0.1,2.4,1.3,4.6,3.2,6.1
	C531.4,108.8,535.5,108.9,538.9,109z"/>
<rect x="544.4" y="76.9" class="st1" width="10.8" height="2"/>
<path class="st0" d="M598.2,173.4l1.8,44.4l2.9,69.5l0.4,9.4c0.1,1.7,0.8,3.4,2.1,4.5c0.9,0.8,2.1,1.4,3.3,1.6
	c0.5,0.1,0.9,0.1,1.4,0.1l5.9-0.2l8.9-0.4c0.2,0,0.3,0,0.5,0c3.4-0.4,5.9-3.3,5.8-6.8l-3.3-78.8l-1.8-44.5c-0.2-3.6-3.2-6.4-6.8-6.2
	l-3.1,0.1l-11.7,0.5C600.9,166.7,598.1,169.7,598.2,173.4C598.2,173.3,598.2,173.3,598.2,173.4L598.2,173.4z"/>
<path class="st1" d="M593.7,177.1v34.1c0,3.5,2.8,6.4,6.3,6.5c0.1,0,0.1,0,0.2,0h24.1c0.4,0,0.8,0,1.2-0.1c0.9-0.2,1.7-0.5,2.4-1
	c1.8-1.2,2.9-3.3,2.9-5.4v-34.1c0-10.2-8.3-18.5-18.6-18.6c-1.3,0-2.5,0.1-3.8,0.4C599.9,160.7,593.7,168.3,593.7,177.1z"/>
<path class="st1" d="M523.4,191.3c0.2,0.8,0.7,1.6,1.2,2.2l15.2,18.6c0.3,0.3,0.6,0.7,0.9,0.9c2.4,2,5.8,2,8.2,0l26.4-21.6
	c7.9-6.5,9.1-18.2,2.6-26.1c-6.5-7.9-18.2-9.1-26.1-2.6l-26.4,21.6C523.4,186.1,522.6,188.8,523.4,191.3z"/>
<path class="st1" d="M576,53.7c-8.9,3.7-18.6,7.8-28.5,6.7c-8.1-0.9-15.9-5.7-17.8-14.1c-1.8-8,1.9-16.4,7.8-21.7
	c6.7-6.1,15.9-9,24.6-10.3c5.3-0.7,11.2-0.8,16.1,1.7c3.9,2,7.4,5.6,8,10.1l3.8-1c-2.7-4.5-1.4-10,1.6-14c3.5-4.9,9.5-6.9,15.3-7.1
	c11.9-0.3,24,5.2,33.5,11.8c9.4,6.6,17.1,15.3,22.6,25.4c6.1,11.3,9.5,24.9,7.4,37.8c-2.1,13.1-10.6,25.5-23.7,29.5
	c-2.5,0.7-1.4,4.6,1.1,3.9c12.5-3.8,21.8-14.6,25.3-27c4.1-14.2,1.3-29.8-5-42.9C662.6,31,654.3,21.1,644,13.5
	C633.7,5.9,620.4-0.1,607.4,0c-7.5,0.1-14.7,2.7-19.2,8.9c-3.9,5.2-5.1,12.5-1.7,18.3c0.9,1.6,4,1.1,3.8-1
	c-1.4-10.6-11.6-16-21.5-16.2c-5.6,0-11.1,0.8-16.4,2.4c-4.9,1.3-9.6,3.5-13.8,6.3c-8,5.5-13.5,14.3-13.3,24.2
	c0.2,9.9,6.9,17.5,16.1,20.4c12.2,3.9,24.5-0.9,35.7-5.6c1.1-0.3,1.7-1.4,1.4-2.5C578.2,54.1,577,53.4,576,53.7L576,53.7z"/>
<g transform="translate(0.000000,1280.000000) scale(0.100000,-0.100000)">
	<path class="st2" d="M606.2,12278.2c-0.2-21.5-0.8-24.4-2.2-11.1c-0.4,3.3-0.8,5.7-0.9,5.2c-0.2-0.4-0.8-3.4-1.4-6.5
		c-1.5-7.6-2.5-5.8-2.7,4.5c0,4.5-0.4,8.9-0.8,9.8c-0.4,0.9-0.7-4.1-0.7-12.1c0.1-7.5-0.4-21.5-0.9-30.9
		c-2.1-36.9-1.1-85.5,2.1-111.2c1.2-9.6,4.7-29.7,5.1-29.8c0.1,0,2.4-0.7,5-1.5l4.9-1.4l1.7,1.8c1.6,1.8,1.7,1.8,2.7,0.3
		c0.6-0.9,1.9-3.6,3-6.1c4-9.4,8.4-12.8,16.3-12.4c2.3,0.1,2.6,2.2,0.6,5.5c-1.1,1.9-1.1,2.4-0.1,3.1c0.7,0.5,1.4,1.9,1.7,3.1
		c0.4,1.4,1.3,2.5,2.5,2.8c1.8,0.5,1.9,0.9,1.5,8.1c-0.3,5.6-0.8,8.3-2.2,10.6c-1,1.7-3.6,8.6-5.7,15.3c-3.3,10.3-3.9,13.2-3.9,19.3
		c0,4.3,0.4,7.6,1,8.1c0.8,0.7,1.2,0.4,1.6-1.1c0.3-1.1,1-2,1.4-2c1.1,0,1.2-0.4-0.4,6.4c-2.2,9.5-2.1,9.2-4.4,9.2
		c-2,0-2.1,0.2-2.6,9.2c-1,15.2-2.7,25-10.9,62c-5.7,25.8-8.1,39.3-9.8,53.3l-1.2,10.5L606.2,12278.2z"/>
	<path class="st2" d="M811,12236.6c-12.1-14.2-20.7-28-40.3-65.2c-13.4-25.4-14-26.7-22.2-45c-7.2-16.2-11.4-27-13.9-35.6
		c-1.6-5.4-3.8-22.1-3-22.8c1-0.8,5.9,2,13.9,7.8c12.8,9.4,13.2,9.9,19.2,23.6c6.7,15.6,17,43.4,28.1,76.3
		c11.1,32.7,16.6,48.5,20.5,58.6c1.7,4.4,3,8,2.8,8C815.8,12242.2,813.6,12239.7,811,12236.6z"/>
	<path class="st2" d="M386.5,12232.3c3.8-8.6,22.6-67.3,21.7-68c-0.2-0.2-1.9,3.1-3.7,7.2c-1.9,4.1-3.6,7.3-3.8,7.1
		c-0.6-0.5,13.4-36.3,18.4-47.2c11-23.6,22.6-40.2,38.5-55.3c5.9-5.6,6.7-6.1,10-6.1c5.2,0,9.5,2,11.5,5.6c2.1,3.6,2.1,6.5,0.2,13.3
		c-1.4,4.6-1.7,5.1-3.1,4.3c-1.3-0.7-2-0.5-3.6,1.3c-3.3,3.6-30.3,41.7-39.6,55.8c-16.5,25.1-36.2,60.2-43.8,77.7
		c-1.3,3.1-2.7,5.6-3,5.6S386.1,12233,386.5,12232.3z"/>
	<path class="st2" d="M1001.9,12127.4c-25.7-9.1-50.4-23.3-86.1-49.6c-48.2-35.5-67.3-48.9-74.3-52.1c-1.3-0.5-5.6-1.6-9.8-2.3
		c-10.3-1.8-13.2-3-17.5-7c-2.7-2.5-4.5-3.4-7.3-3.8c-3.5-0.5-9.2-3.8-9.2-5.2c0-0.4,1.5-0.8,3.4-0.9c3.1-0.2,3.5-0.5,6.3-5.3
		c3.6-6.3,3.2-7.4-3.9-11.5c-4.7-2.7-4.9-3-2.9-3.2c2.4-0.2,3.3-2.3,3.7-8.5l0.2-2.6h5.4c8,0,18.4,2.5,34.3,8.1
		c7.7,2.7,15.7,5.5,17.8,6c3.3,0.9,4.2,1.7,8.8,8.1c26.4,37.4,60.3,66.8,131.1,113.5c11.5,7.7,21.1,14.3,21.2,14.8
		c0.6,2.3-1.5,3.3-7.8,3.7C1009.4,12129.9,1008,12129.6,1001.9,12127.4z"/>
	<path class="st2" d="M214.7,12070.8c1.1-1.1,6.4-6.7,12-12.5c5.6-5.9,12.9-12.4,16.5-15c7.6-5.2,15.8-12.7,17.9-16.2
		c0.8-1.4,1.3-2.5,0.9-2.5c-0.3,0-2.9,1.7-5.6,3.8c-6.8,5.2-12.6,8.8-14.1,8.8c-2.2,0,1.8-4.1,9.8-9.9c4.1-3.1,8.3-7,9.5-8.8
		l2.1-3.2h-1.9c-2.8,0-6.3,1.8-9.8,5.1c-1.7,1.6-4.3,3.6-5.8,4.5l-2.7,1.7l2.2-2.3c15-15.8,33.5-33.7,45.1-43.8
		c15.6-13.5,25.6-20.3,39.1-26.4c8.1-3.6,20.2-7.4,21.1-6.7c0.2,0.2,1.2,3.1,2.1,6.4c1.4,4.8,1.6,6.6,0.9,8.5
		c-2.2,5.4,0.1,8.5,7.2,9.5c2,0.3,5.2,1.3,7.2,2c2.8,1.3,3.5,2,3.5,3.8c0,2.7-2.1,4.5-7.3,6c-7.2,2.1-9.1,5.8-3,5.8
		c3.8,0,4.5,0.9,2.8,3.8c-2.3,3.8-4,4.9-6.9,4.4c-2.8-0.5-3.6,0.4-4.8,5.4l-0.5,2.3l-9.6-0.5c-8.3-0.5-10.3-0.3-14.9,1.1
		c-14.3,4.3-28.5,12.1-54.2,29.8c-24.8,17.1-29.5,19.9-31.5,18.8c-1.3-0.7-2.2-0.6-4.2,0.2c-3.3,1.6-11.8,7.5-18.9,13.3
		C215.5,12070.6,213.8,12071.9,214.7,12070.8z"/>
	<path class="st2" d="M598.1,12067.5c-19.9-1.4-39.8-6-54.6-12.6c-4.7-2.1-11.4-4.5-14.9-5.2c-11.9-2.7-19.4-7-39.6-22.7
		c-16.3-12.6-21.8-16.4-29.4-19.7l-5.6-2.5l2.4-1.7l2.4-1.6l-2.4-1.6c-3.3-2.3-5.5-2.7-7.7-1.7c-1.6,0.8-2.3,0.5-4.9-1.6
		c-3.6-3-3.7-3.5-1.2-4.2c1.7-0.5,1.8-0.6,0.3-2c-2.1-2-0.5-1.9,2.1,0.2c1.5,1.3,2.3,1.5,3,0.9c2.4-2.1-6.4-10.5-12.5-12
		c-3.2-0.7-3.8-1.3-6.5-6c-2.7-4.9-6.4-8.1-9.4-8.1c-1.9,0-1.3,2.3,0.8,3.2c1.6,0.8,1.7,1,0.7,1.3c-0.7,0.2-2.4,1.3-3.7,2.6
		c-2.7,2.5-2.1,3.1,3.6,3.1c1.8,0,4.1,0.5,5.1,1.3c1.6,1.2,1.6,1.2-0.4,0.7c-1.1-0.3-4,0.1-6.5,0.8c-2.4,0.7-5.5,1.1-6.6,0.9
		c-4.4-0.9-13.3-11.2-22.7-26.1c-3.1-4.9-7.5-11-9.8-13.7c-4.2-5-6.4-9-6.4-12.1c0-1-0.6-2.8-1.3-4.1c-1.3-2.2-2.5-2.7-5.9-2.5
		c-3.4,0.2-13.6-24.4-13.4-32.4c0.1-3.4-0.6-6.4-2.5-11c-2.1-4.9-3.3-10.9-5.8-27.2c-5.3-34.4-6.2-44.2-5.6-61.8
		c0.4-16,1.6-23.5,5.1-33.7c1.1-3,2.5-7.9,3.2-10.9c0.7-3.1,2.5-8.8,3.9-12.8c2.7-7.2,3.2-12.4,1.8-15.5c-0.6-1.3-0.9-1.1-2.4,2
		c-1,2-2.5,5.4-3.3,7.7c-0.9,2.2-1.8,4.1-2,4.1c-0.3,0-0.2-2.2,0.2-4.9c0.6-4.9,3-10.6,17.1-39.8c18-37.4,33-52.5,66.7-66.8
		c6.6-2.8,13.2-6.1,14.6-7.4c3.8-3.4,12-7.7,23.3-12.4c23.5-9.8,49.8-15,82.6-16.4l12.8-0.5l-0.3,2.2c-0.4,3.8,3.5,4.5,29.3,4.7
		c14.9,0.1,26.1,0.6,33.6,1.5c6.2,0.7,18.4,1.6,27.3,2c22.4,1,29.8,2.7,64.4,14.1c9.4,3.1,20.2,6.5,24.2,7.6
		c16.9,4.7,50.9,26.4,69.4,44.2c33.6,32.6,52,67.1,57.4,107.5c1.5,11.6,1.5,49.6,0,58.3c-4.1,23.6-10,40.2-22,61.5
		c-11.7,20.7-25.5,37.7-45.2,55.4c-35.3,32-72.9,49.7-118.3,55.8c-13.8,1.9-41.5,1.9-54.1,0.1c-40.4-6-69-19.7-102.6-49
		c-25.8-22.6-42-44.8-52.3-71.7c-6.9-18-9.5-32.1-9.4-51.3c0-13.9,0.8-21.7,3.7-34c8.4-36.2,38.9-71.2,76.4-87.3
		c9.9-4.3,30-10.4,41.6-12.7c23.1-4.5,47.8-3.7,89.5,3c13,2,13,2,19.7,6.3c18.8,12,35.2,31,47.1,54.6c4.2,8.5,5,10.9,7.5,23.9
		c3.8,18.9,4.4,29.8,2.2,38c-1,3.7-1.6,9.9-1.8,15.6c-0.2,10.4-1.3,14.8-8,32.3c-3.6,9.3-4.6,11-9.5,16.2
		c-16.5,17.7-40.6,30.1-66.8,34.5c-4.8,0.8-7.2,0.6-22.8-1.6c-20.9-3-26.9-4.3-35.5-7.8c-12.3-4.9-22.1-16.1-21.8-25.1
		c0.2-4.1,5.4-52.3,6.1-55.9c0.8-4.5,6.3-13.5,10.9-18.1c2.5-2.3,7.3-6,10.8-8.1c8.5-5,23.2-11,24.5-10c0.6,0.5,3.8,1.2,7.2,1.6
		c6.9,0.9,8.9,2,8.5,4.4c-0.3,1.5-1.1,1.7-7.4,2.1c-9,0.6-23.6,5.4-31.3,10.3c-9.6,6.1-16.8,17.7-19.2,30.6
		c-0.4,2.7-1.5,11.4-2.2,19.3c-0.7,8-1.5,15.2-1.8,16.1c-0.4,1.3,0.8,2.5,4.7,5.2c13.6,9.7,33.9,14.6,60.4,14.6
		c9.7,0,9.8,0,17.5-3.3c11.3-4.9,20-11.4,22.9-17.1c1.4-2.9,7.3-26.5,10.3-41.5c6.1-31.1,4-50.5-7.3-69.1
		c-6.4-10.5-11.7-16.6-18.5-21.4c-16.5-11.7-38.8-18-66.7-18.9c-39.1-1.3-71,7.5-93,25.6c-7.2,6-10.9,10.3-17.8,20.4
		c-9.6,14.2-14.6,26.6-17.3,42.4c-2.2,13.2-1.3,36.6,1.9,49.9c4.7,19.5,12.7,36.8,23.5,50.7c25.2,32.1,57.2,54.6,91.5,64.7
		c16.5,4.9,36.7,7.4,51.4,6.4c10.4-0.6,33.8-3.9,42.5-6c50.9-11.8,99.1-53.9,117.1-102.2c9.8-26.3,7.6-71.8-5.5-110.2
		c-5.8-17.3-18.3-41.1-29.4-56.1c-26.3-35.5-40-46.3-83.3-65.5c-11.7-5.2-15.8-6.6-18.7-6.6c-5.7,0-14.2-2.1-27.2-6.7
		c-16.6-5.9-17.1-5.9-29.3-6.2c-9.7-0.2-12.9-0.6-25.8-3.6c-13.7-3.1-15.6-3.4-26-3.4c-6.2,0-21.4,0.1-33.7,0.2
		c-24.5,0.1-32.1,0.7-39.6,3.6c-2.7,1-6.8,2-9.1,2.3c-5.2,0.6-8.1,2.6-13.5,9.2c-4.1,4.9-8.9,8.3-10,6.8c-1.3-1.7-5.7-0.6-12,2.8
		c-3.5,2-7.6,3.7-8.9,3.8c-2,0.1-4,1.6-8.2,5.8c-3.1,3.1-7,7.1-8.4,8.9c-1.5,1.8-5.6,6.6-9.1,10.6c-11,12.4-19.4,26.9-23.5,40.6
		c-5.4,17.8-7.9,23-11.1,23c-1.1,0-1.1,0.5-0.3,2.8c0.7,2,0.7,3.9,0,6.8c-1.3,5.5-5.3,13.2-6.7,12.9c-2-0.4-4.5,4.9-3.9,8.5
		c0.3,1.8,0.1,3.5-0.4,3.8c-1.5,0.9-1,2,1,2c1.8,0,1.9,0.3,1.5,4c-0.3,2.6-1,4.3-1.9,4.7c-0.8,0.4-1.9,2.6-2.4,4.9
		c-1,4.3-0.4,8.8,2.3,16.5c0.7,2.2,1.7,8.3,2.2,13.5c0.8,9.2,2.1,14.6,8.5,34.7c1.7,5.1,2.5,9.8,2.7,14.9c0.1,4.1,0.4,8.1,0.8,9
		c1.3,3.8,2.9,5.5,4.9,5.7c1.8,0.2,4.2,3,12.8,15c9.8,13.6,10.5,14.9,9.5,16.8c-1.4,2.7-0.4,6.6,3.3,12.9l3.2,5.2l-4.1-3.5
		c-2.9-2.3-4.1-4.1-4.1-5.5c0-1.6-0.4-2-1.9-2c-1.1,0.1-2.2-0.5-2.5-1.1c-4.5-8.2-8.2-12.4-10.7-11.7c-1.5,0.5,12.8,25,20.6,35.2
		c17.1,22.5,38.7,43,66,62.4c5.4,3.8,7,4.6,9.1,4.3c1.4-0.2,4.7,0.1,7.3,0.6c5.6,1.2,17.1,6,16.5,7c-1,1.3,2.9,3.3,8.5,4.4
		c3.1,0.5,6.6,1.3,7.8,1.6c1.4,0.4,2,0.2,2-0.8c0-0.7,0.2-1.3,0.4-1.3c0.4,0,7.8,2.4,8.3,2.7c0.1,0.1-0.2,1.1-0.6,2.2
		c-1.9,4.2,7.6,11.8,17.8,14.3c2.7,0.7,8.6,2.6,13,4.2c18.7,7,33.5,10,52.4,10.9c28.5,1.3,52.9-2.1,106.5-14.7
		c12.5-3,22.9-5.3,23.1-5.2c0.1,0.2-4.9,2.9-11.2,6.1c-34.2,17.7-59.2,26.2-87.6,30C644.6,12067.9,612.9,12068.5,598.1,12067.5z"/>
	<path class="st2" d="M237,12031.6c3.9-3.4,5.5-4.5,6.4-3.8c0.6,0.5,1.7,0.5,2.3,0.2c0.8-0.3,0.9-0.3,0.3,0.2
		c-1.4,1.3-13,8.1-13.7,8.1C232,12036.3,234.1,12034.2,237,12031.6z"/>
	<path class="st2" d="M433.9,11988.6c0.4-0.5,1-0.6,1.4-0.4c1.3,0.7,1,1.2-0.6,1.2C434,11989.3,433.6,11988.9,433.9,11988.6z"/>
	<path class="st2" d="M1065.1,11942.8c-0.6-0.5-21.8-4.1-32.1-5.4c-15.1-1.9-26-2.7-63.5-4.8c-51.6-2.9-49.5-2.6-61.8-7.8
		c-11-4.6-20.8-7.7-29.5-9.2c-4.4-0.8-5.5-1.3-5.8-2.7c-0.8-2.6,1.1-4.2,4.9-4.2c3.8,0,9.7-1.3,10.4-2.4c0.4-0.4-0.5-1.9-1.9-3.3
		c-1.3-1.3-3.6-4.6-5-7.2c-2.5-4.6-2.5-4.7-0.8-5.9c1-0.7,4.2-1.7,7.2-2.3c6.6-1.3,14.2-0.5,35.3,3.6c25.8,5,47.7,11.5,98.1,29
		c18,6.3,39.6,13.5,48,16.2c18,5.6,19,6.7,5.8,6.7C1069.4,11943.1,1065.3,11943,1065.1,11942.8z"/>
	<path class="st2" d="M52.2,11907.8c0.8-0.8,50.5-18.9,61.1-22.3c10.5-3.3,26.5-7.5,38.2-9.9l5.8-1.2l-8.9,0.3
		c-4.9,0.2-12.5,0.6-17,0.9c-9.8,0.6-9.4-0.1,2.5-3.9c19.8-6.4,43.8-11.4,71.8-15c14.7-1.8,18.1-2,51.8-2c19.8,0,42.1,0.2,49.7,0.5
		c12.5,0.5,13.4,0.5,12.2,1.8c-2,1.9-1.7,2.4,2.7,6.3c2.2,1.9,4,3.7,4,4c0,1.8-5.5,5.8-12.5,9c-9.7,4.5-10.6,5.7-8,11.4l1.9,4.1
		l-2,1.3c-2.6,1.8-3,1.8-4-0.3c-0.8-1.6-1.7-1.9-7.4-2.2c-5.9-0.3-6.8-0.6-8.6-2.6l-2.1-2.2l-20-0.5c-14.3-0.3-26.3,0-42,0.9
		c-12.1,0.7-31.8,1.6-43.8,2l-21.9,0.5l-34.5,6.4c-19,3.5-41.3,7.7-49.7,9.2c-8.3,1.5-16.2,3-17.5,3.2
		C52.8,11907.9,52,11907.9,52.2,11907.8z"/>
	<path class="st2" d="M900.1,11796c-3-1.3-6.4-3-7.5-3.8l-2.1-1.5l6.5-5.8c18.5-16.4,40.6-24.8,75.3-28.7c10-1.1,19.6-1.3,63.4-1.1
		c57.5,0.2,65.7-0.2,76.8-3.8c4-1.3,7.6-2.3,8-2.3c0.3,0-0.8,1.2-2.4,2.7c-2.1,2-3,3.4-3,5.3c0,2.1-0.6,3-3.7,4.9
		c-15.7,9.9-33.1,15.7-57.5,18.7c-9.8,1.3-26.2,2.3-51,3.6c-33.4,1.6-41.1,2.7-60.4,8.2C919.4,11799.1,909.3,11799.9,900.1,11796z"
		/>
	<path class="st2" d="M333.4,11783.4c0-1.5,0.2-2.1,0.4-1.3c0.2,0.7,0.2,2,0,2.7C333.6,11785.5,333.4,11784.9,333.4,11783.4z"/>
	<path class="st2" d="M304.9,11758c-2.1-1.3-10.8-1.6-18.7-0.4c-6.7,1-11.5,0.4-14.6-1.9c-1.3-1-3.8-2-5.5-2.3
		c-5.1-0.8-13.9-4.8-24-11c-9.6-5.7-17.7-9.9-19.4-9.9c-0.5,0-1.3-0.9-1.9-2.1c-1.3-3.2-6.7-6-20.1-10.9c-6.6-2.3-15.4-6-19.6-8.1
		c-4.2-2.1-9-4.5-10.7-5.2c-3.8-1.6-12.5-3.5-12.5-2.7c0,0.4,0.5,0.9,1.2,1c0.5,0.2-0.8,0.5-3,0.5c-4.7,0.1-7.1-1.4-4.8-3.1
		c2-1.5,1-2.1-4.4-2.7c-5.4-0.6-7.2-1.6-8.9-4.4c-0.8-1.5-2-2-4.5-2.2c-1.8-0.2-3.3-0.5-3.3-0.9c0-0.4-2.5-1.1-5.6-1.6l-5.5-1l4-0.7
		c6.7-1,7-1.3,3.6-3.1c-1.7-0.9-9.8-5.5-17.9-10.1s-17.4-9.6-20.5-11l-5.8-2.7l6.3-0.2c4.4-0.2,10.6,0.5,20.1,2.2
		c7.9,1.4,17.8,2.6,23.2,2.8l9.4,0.3l-4-1.7c-2.2-0.9-9.5-3.4-16.1-5.4c-6.6-2-11.6-3.8-11.2-3.8c0.5-0.1,8.1,1.2,16.8,2.7
		c8.8,1.5,19.7,3.1,24.2,3.5c25.2,2.6,49.1,8.2,82.5,19.3c8.4,2.8,18.3,6.3,21.9,7.8c10,4.1,16.9,6.1,31.1,9.2
		c18.3,4,25.2,6.5,32.9,11.9c3.6,2.4,3.8,2.8,4.4,8.1c0.4,4.1,0.4,5.9-0.5,6.7c-1,1.1-0.8,1.6,1.3,3.1c2.3,1.7,2.4,2,1.5,5.2
		c-2.4,8.5-4.7,10.6-8.6,8.1c-1.8-1.2-3.9-0.4-3.9,1.4c0,1.2,3.8,4.4,5.1,4.4c2.1,0-0.7,5.2-4.6,8.5
		C309.8,11759.4,307.8,11759.9,304.9,11758z"/>
	<path class="st2" d="M861.5,11667.5c-4.6-0.8-5.7-1.6-3.8-2.7c2-1.1-0.4-2-5-2c-3.8,0-5.3-0.4-6.8-1.7l-1.9-1.6l9.8-8.4
		c20.5-17.5,40.9-28.7,86.7-47.4c12.3-5,27.9-11.6,34.7-14.6c6.7-3,12.3-5.3,12.3-5.2c0,1-5.9,12.6-8.2,16.2
		c-10.9,17.1-30.5,34.7-45.5,40.9c-3.7,1.5-12.9,6.3-20.5,10.7c-14.5,8.4-23.7,12.8-30.4,14.6
		C877.2,11667.9,867.1,11668.4,861.5,11667.5z"/>
	<path class="st2" d="M373.9,11631.2c-1.3-1-2.2-2.6-2.2-3.4c0-0.9-2.5-3.3-6.4-6.1c-44.8-31.4-93.2-77.4-144.7-137.2
		c-7.8-9-8.2-9.7-6.6-10.7c1.5-1,1.5-1.2-0.6-3.1c-1.3-1.2-6.3-5.1-11.3-8.6c-4.9-3.6-9.7-7.4-10.6-8.6c-2-2.7-3.2-3.3,22.1,11.7
		c11.2,6.7,20.3,11.8,20.3,11.4c0-1.6-4-7.6-7.9-11.7c-3.8-4-3.5-3.8,3.6,2c15.1,12.4,21.1,16.3,24.6,15.9c2.4-0.2,2.1-0.7-7.8-10
		c-11.3-10.7-11-10.8,1.8-0.8c26.8,21.1,46.8,37.6,109.6,90.9c19.2,16.4,36,30.5,37.4,31.6c3.3,2.6,3,4.7-1.3,11
		c-4.4,6.3-5.2,9.8-3.1,12.6c1.5,2,1.4,2.2-1.9,6.9c-3.6,4.9-8.1,8.4-11.2,8.4C376.9,11633.1,375.1,11632.2,373.9,11631.2z"/>
	<path class="st2" d="M408,11620.5c4.4-4.2,23.5-13.2,26.4-12.3c0.4,0.2-2.1,2.2-5.7,4.5c-4.8,3.2-7.2,4.3-9.8,4.5
		c-2.1,0.1-4.7,1-7.1,2.5C407.5,11622.5,405.5,11622.9,408,11620.5z"/>
	<path class="st2" d="M563.2,11580.7c0-0.4,0.6-0.5,1.3-0.3c0.7,0.3,1.3,0.6,1.3,0.8c0,0.2-0.6,0.3-1.3,0.3
		S563.2,11581.1,563.2,11580.7z"/>
	<path class="st2" d="M718.3,11574.1c-6.5-1.1-18.3-5.3-20-7.3c-0.8-0.8-0.7-1.4,0.4-2.4c1.6-1.6,1.9-3.4,0.4-4.6
		c-0.6-0.5,0.3-3.3,3.2-9.3c5.3-10.7,10.3-22.5,19.2-44.9c17.5-43.9,26.2-61.7,39.9-80.5l4.7-6.6l0.3,7.8c0.6,18.1-1.7,44-6.1,67.2
		c-2.2,11.7-7.2,33.1-9.7,41c-1.2,3.8-1.2,4.5,0.1,6.6c0.7,1.3,1.5,3.4,1.6,4.8c0.2,1.3,0.6,4.5,1,6.9c0.6,4.8,0.4,5.1-3.8,5.6
		c-0.9,0.2-1.7,0.7-1.8,1.3c-0.1,0.6-0.4,3.4-0.7,6.3l-0.5,5.2l-4.7,1.5C735.5,11574.8,726.1,11575.3,718.3,11574.1z"/>
	<path class="st2" d="M521.1,11562.2c-2.7-1.5-5.5-3.1-6.1-3.4c-1-0.5-0.9-1.3,0.6-3.8l1.8-3.2l-8.8-16.7
		c-21.5-40.9-33.2-68.3-69-161.4c-20.4-52.9-22.1-57.8-20.9-59.3l1.3-1.6l3.8,2.3c5,3.1,8.8,6.7,16,15.9c5.2,6.5,7.9,11.4,20.7,38
		c34.2,70.9,52.8,103.6,78.7,138.2c7.1,9.5,8.3,10.7,10.5,10.7c3,0,4.1,1.1,5.3,5.4c0.9,3.7,3.1,6.3,5.4,6.3c0.9,0-0.2,1.3-2.8,3.5
		c-4.2,3.4-4.7,4.2-4.4,6.7c0.2,1.6-6.4,9.5-12.3,14.6c-4.2,3.7-13.6,10.3-14.5,10.3C526.2,11565,523.8,11563.7,521.1,11562.2z"/>
</g>
<g transform="translate(0.000000,1280.000000) scale(0.100000,-0.100000)">
	<path class="st3" d="M1960.9,12260.7c-0.2-21.5-0.8-24.4-2.2-11.1c-0.4,3.3-0.8,5.7-0.9,5.2c-0.2-0.4-0.8-3.4-1.4-6.5
		c-1.5-7.6-2.5-5.8-2.7,4.5c0,4.5-0.4,8.9-0.8,9.8c-0.4,0.9-0.7-4.1-0.7-12.1c0.1-7.5-0.4-21.5-0.9-30.9
		c-2.1-36.9-1.1-85.5,2.1-111.2c1.2-9.6,4.7-29.7,5.1-29.8c0.1,0,2.4-0.7,5-1.5l4.9-1.4l1.7,1.8c1.6,1.8,1.7,1.8,2.7,0.3
		c0.6-0.9,1.9-3.6,3-6.1c4-9.4,8.4-12.8,16.3-12.4c2.3,0.1,2.6,2.2,0.6,5.5c-1.1,1.9-1.1,2.4-0.1,3.1c0.7,0.5,1.4,1.9,1.7,3.1
		c0.4,1.4,1.3,2.5,2.5,2.8c1.8,0.5,1.9,0.9,1.5,8.1c-0.3,5.6-0.8,8.3-2.2,10.6c-1,1.7-3.6,8.6-5.7,15.3c-3.3,10.3-3.9,13.2-3.9,19.3
		c0,4.3,0.4,7.6,1,8.1c0.8,0.7,1.2,0.4,1.6-1.1c0.3-1.1,1-2,1.4-2c1.1,0,1.2-0.4-0.4,6.4c-2.2,9.5-2.1,9.2-4.4,9.2
		c-2,0-2.1,0.2-2.6,9.2c-1,15.2-2.7,25-10.9,62c-5.7,25.8-8.1,39.3-9.8,53.3l-1.2,10.5L1960.9,12260.7z"/>
	<path class="st3" d="M2165.8,12219.1c-12.1-14.2-20.7-28-40.3-65.2c-13.4-25.4-14-26.7-22.2-45c-7.2-16.2-11.4-27-13.9-35.6
		c-1.6-5.4-3.8-22.1-3-22.8c1-0.8,5.9,2,13.9,7.8c12.8,9.4,13.2,9.9,19.2,23.6c6.7,15.6,17,43.4,28.1,76.3
		c11.1,32.7,16.6,48.5,20.5,58.6c1.7,4.4,3,8,2.8,8S2168.4,12222.2,2165.8,12219.1z"/>
	<path class="st3" d="M1741.2,12214.8c3.8-8.6,22.6-67.3,21.7-68c-0.2-0.2-1.9,3.1-3.7,7.2c-1.9,4.1-3.6,7.3-3.8,7.1
		c-0.6-0.5,13.4-36.3,18.4-47.2c11-23.6,22.6-40.2,38.5-55.3c5.9-5.6,6.7-6.1,10-6.1c5.2,0,9.5,2,11.5,5.6c2.1,3.6,2.1,6.5,0.2,13.3
		c-1.4,4.6-1.7,5.1-3.1,4.3c-1.3-0.7-2-0.5-3.6,1.3c-3.3,3.6-30.3,41.7-39.6,55.8c-16.5,25.1-36.2,60.2-43.8,77.7
		c-1.3,3.1-2.7,5.6-3,5.6C1740.8,12216.1,1740.9,12215.5,1741.2,12214.8z"/>
	<path class="st3" d="M2356.6,12110c-25.7-9.1-50.4-23.3-86.1-49.6c-48.2-35.5-67.3-48.9-74.3-52.1c-1.3-0.5-5.6-1.6-9.8-2.3
		c-10.3-1.8-13.2-3-17.5-7c-2.7-2.5-4.5-3.4-7.3-3.8c-3.5-0.5-9.2-3.8-9.2-5.2c0-0.4,1.5-0.8,3.4-0.9c3.1-0.2,3.5-0.5,6.3-5.3
		c3.6-6.3,3.2-7.4-3.9-11.5c-4.7-2.7-4.9-3-2.9-3.2c2.4-0.2,3.3-2.3,3.7-8.5l0.2-2.6h5.4c8,0,18.4,2.5,34.3,8.1
		c7.7,2.7,15.8,5.5,17.8,6c3.3,0.9,4.2,1.7,8.8,8.1c26.4,37.4,60.3,66.8,131.1,113.5c11.5,7.7,21.1,14.3,21.2,14.8
		c0.6,2.3-1.5,3.3-7.8,3.7C2364.2,12112.4,2362.7,12112.1,2356.6,12110z"/>
	<path class="st3" d="M1569.5,12053.3c1.1-1.1,6.4-6.7,12-12.5c5.6-5.9,12.9-12.4,16.5-15c7.6-5.2,15.8-12.7,17.9-16.2
		c0.8-1.4,1.3-2.5,0.9-2.5c-0.3,0-2.9,1.7-5.6,3.8c-6.8,5.2-12.6,8.8-14.1,8.8c-2.2,0,1.8-4.1,9.8-9.9c4.1-3.1,8.3-7,9.5-8.8
		l2.1-3.2h-1.9c-2.8,0-6.3,1.8-9.8,5.1c-1.7,1.6-4.3,3.6-5.8,4.5l-2.7,1.7l2.2-2.3c15-15.8,33.5-33.7,45.1-43.8
		c15.6-13.5,25.6-20.3,39.1-26.4c8.1-3.6,20.2-7.4,21.1-6.7c0.2,0.2,1.2,3.1,2.1,6.4c1.4,4.8,1.6,6.6,0.9,8.5
		c-2.2,5.4,0.1,8.5,7.2,9.5c2,0.3,5.2,1.3,7.2,2c2.8,1.3,3.5,2,3.5,3.8c0,2.7-2.1,4.5-7.3,6c-7.2,2.1-9.1,5.8-3,5.8
		c3.8,0,4.5,0.9,2.8,3.8c-2.3,3.8-4,4.9-6.9,4.4c-2.8-0.5-3.6,0.4-4.8,5.4l-0.5,2.3l-9.6-0.5c-8.3-0.5-10.3-0.3-14.9,1.1
		c-14.3,4.3-28.5,12.1-54.2,29.8c-24.8,17.1-29.5,19.9-31.5,18.8c-1.3-0.7-2.2-0.6-4.2,0.2c-3.3,1.6-11.8,7.5-18.9,13.3
		C1570.3,12053.1,1568.5,12054.4,1569.5,12053.3z"/>
	<path class="st3" d="M1952.9,12050c-19.9-1.4-39.8-6-54.6-12.6c-4.7-2.1-11.4-4.5-14.9-5.2c-11.9-2.7-19.4-7-39.6-22.7
		c-16.3-12.6-21.8-16.4-29.4-19.7l-5.6-2.5l2.4-1.7l2.4-1.6l-2.4-1.6c-3.3-2.3-5.5-2.7-7.7-1.7c-1.6,0.8-2.3,0.5-4.9-1.6
		c-3.6-3-3.7-3.5-1.2-4.2c1.7-0.5,1.8-0.6,0.3-2c-2.1-2-0.5-1.9,2.1,0.2c1.5,1.3,2.3,1.5,3,0.9c2.4-2.1-6.4-10.5-12.5-12
		c-3.2-0.7-3.8-1.3-6.5-6c-2.7-4.9-6.4-8.1-9.4-8.1c-1.9,0-1.3,2.3,0.8,3.2c1.6,0.8,1.7,1,0.7,1.3c-0.7,0.2-2.4,1.3-3.7,2.6
		c-2.7,2.5-2.1,3.1,3.6,3.1c1.8,0,4.1,0.5,5.1,1.3c1.6,1.2,1.6,1.2-0.4,0.7c-1.1-0.3-4,0.1-6.5,0.8c-2.4,0.7-5.5,1.1-6.6,0.9
		c-4.4-0.9-13.3-11.2-22.7-26.1c-3.1-4.9-7.5-11-9.8-13.7c-4.2-5-6.4-9-6.4-12.1c0-1-0.6-2.8-1.3-4.1c-1.3-2.2-2.5-2.7-5.9-2.5
		c-3.4,0.2-13.6-24.4-13.4-32.4c0.1-3.4-0.6-6.4-2.5-11c-2.1-4.9-3.3-10.9-5.8-27.2c-5.3-34.4-6.2-44.2-5.6-61.8
		c0.4-16,1.6-23.5,5.1-33.7c1.1-3,2.5-7.9,3.2-10.9c0.7-3.1,2.5-8.8,3.9-12.8c2.7-7.2,3.2-12.4,1.8-15.5c-0.6-1.3-0.9-1.1-2.4,2
		c-1,2-2.5,5.4-3.3,7.7c-0.9,2.2-1.8,4.1-2,4.1c-0.3,0-0.2-2.2,0.2-4.9c0.6-4.9,3-10.6,17.1-39.8c18-37.4,33-52.5,66.7-66.8
		c6.6-2.8,13.2-6.1,14.6-7.4c3.8-3.4,12-7.7,23.3-12.4c23.5-9.8,49.8-15,82.6-16.4l12.8-0.5l-0.3,2.2c-0.4,3.8,3.5,4.5,29.3,4.7
		c14.9,0.1,26.1,0.6,33.6,1.5c6.2,0.7,18.4,1.6,27.3,2c22.4,1,29.8,2.7,64.4,14.1c9.4,3.1,20.2,6.5,24.2,7.6
		c16.9,4.7,50.9,26.4,69.4,44.2c33.6,32.6,52,67.1,57.4,107.5c1.5,11.6,1.5,49.6,0,58.3c-4.1,23.6-10,40.2-22,61.5
		c-11.7,20.7-25.5,37.7-45.2,55.4c-35.3,32-72.9,49.7-118.3,55.8c-13.8,1.9-41.5,1.9-54.1,0.1c-40.4-6-69-19.7-102.6-49
		c-25.8-22.6-42-44.8-52.3-71.7c-6.9-18-9.5-32.1-9.4-51.3c0-13.9,0.8-21.7,3.7-34c8.4-36.2,38.9-71.2,76.4-87.3
		c9.9-4.3,30-10.4,41.6-12.7c23.1-4.5,47.8-3.7,89.5,3c13,2,13,2,19.7,6.3c18.8,12,35.2,31,47.1,54.6c4.2,8.5,5,10.9,7.5,23.9
		c3.8,18.9,4.4,29.8,2.2,38c-1,3.7-1.6,9.9-1.8,15.6c-0.2,10.4-1.3,14.8-8,32.3c-3.6,9.3-4.6,11-9.5,16.2
		c-16.5,17.7-40.6,30.1-66.8,34.5c-4.8,0.8-7.2,0.6-22.8-1.6c-20.9-3-26.9-4.3-35.5-7.8c-12.3-4.9-22.1-16.1-21.8-25.1
		c0.2-4.1,5.4-52.3,6.1-55.9c0.8-4.5,6.3-13.5,10.9-18.1c2.5-2.3,7.3-6,10.8-8.1c8.5-5,23.2-11,24.5-10c0.6,0.5,3.8,1.2,7.2,1.6
		c6.9,0.9,8.9,2,8.5,4.4c-0.3,1.5-1.1,1.7-7.4,2.1c-9,0.6-23.6,5.4-31.3,10.3c-9.6,6.1-16.8,17.7-19.2,30.6
		c-0.4,2.7-1.5,11.4-2.2,19.3c-0.7,8-1.5,15.2-1.8,16.1c-0.4,1.3,0.8,2.5,4.7,5.2c13.6,9.7,33.9,14.6,60.4,14.6
		c9.7,0,9.8,0,17.5-3.3c11.3-4.9,20-11.4,22.9-17.1c1.4-2.9,7.3-26.5,10.3-41.5c6.1-31.1,4-50.5-7.3-69.1
		c-6.4-10.5-11.7-16.6-18.5-21.4c-16.5-11.7-38.8-18-66.7-18.9c-39.1-1.3-71,7.5-93,25.6c-7.2,6-10.9,10.3-17.8,20.4
		c-9.6,14.2-14.6,26.6-17.3,42.4c-2.2,13.2-1.3,36.6,1.9,49.9c4.7,19.5,12.7,36.8,23.5,50.7c25.2,32.1,57.2,54.6,91.5,64.7
		c16.5,4.9,36.7,7.4,51.4,6.4c10.4-0.6,33.8-3.9,42.5-6c50.9-11.8,99.1-53.9,117.1-102.2c9.8-26.3,7.6-71.8-5.5-110.2
		c-5.8-17.3-18.3-41.1-29.4-56.1c-26.3-35.5-40-46.3-83.3-65.5c-11.7-5.2-15.8-6.6-18.7-6.6c-5.7,0-14.2-2.1-27.2-6.7
		c-16.6-5.9-17.1-6-29.3-6.2c-9.7-0.2-12.9-0.6-25.8-3.6c-13.7-3.1-15.6-3.4-26-3.4c-6.2,0-21.4,0.1-33.7,0.2
		c-24.5,0.1-32.1,0.7-39.6,3.6c-2.7,1-6.8,2-9.1,2.3c-5.2,0.6-8.1,2.6-13.5,9.2c-4.1,4.9-8.9,8.3-10,6.8c-1.3-1.7-5.7-0.6-12,2.8
		c-3.5,2-7.6,3.7-8.9,3.8c-2,0.1-4,1.6-8.2,5.8c-3.1,3.1-7,7.1-8.4,8.9c-1.5,1.8-5.6,6.6-9.1,10.6c-11,12.4-19.4,26.9-23.5,40.6
		c-5.4,17.8-7.9,23-11.1,23c-1.1,0-1.1,0.5-0.3,2.8c0.7,2,0.7,3.9,0,6.8c-1.3,5.5-5.3,13.2-6.7,12.9c-2-0.4-4.5,4.9-3.9,8.5
		c0.3,1.8,0.1,3.5-0.4,3.8c-1.5,0.9-1,2,1,2c1.8,0,1.9,0.3,1.5,4c-0.3,2.6-1,4.3-1.9,4.7c-0.8,0.4-1.9,2.6-2.4,4.9
		c-1,4.3-0.4,8.8,2.3,16.5c0.7,2.2,1.7,8.3,2.2,13.5c0.8,9.2,2.1,14.6,8.5,34.7c1.7,5.1,2.5,9.8,2.7,14.9c0.1,4.1,0.4,8.1,0.8,9
		c1.3,3.8,2.9,5.5,4.9,5.7c1.8,0.2,4.2,3,12.8,15c9.8,13.6,10.5,14.9,9.5,16.8c-1.4,2.7-0.4,6.6,3.3,12.9l3.2,5.2l-4.1-3.5
		c-2.9-2.3-4.1-4.1-4.1-5.5c0-1.6-0.4-2-1.9-2c-1.1,0.1-2.2-0.5-2.5-1.1c-4.5-8.2-8.2-12.4-10.7-11.7c-1.5,0.5,12.8,25,20.6,35.2
		c17.1,22.5,38.7,43,66,62.4c5.4,3.8,7,4.6,9.1,4.3c1.4-0.2,4.7,0.1,7.3,0.6c5.6,1.2,17.1,6,16.5,7c-1,1.3,2.9,3.3,8.5,4.4
		c3.1,0.5,6.6,1.3,7.8,1.6c1.4,0.4,2,0.2,2-0.8c0-0.7,0.2-1.3,0.4-1.3c0.4,0,7.8,2.4,8.3,2.7c0.1,0.1-0.2,1.1-0.6,2.2
		c-1.9,4.2,7.6,11.8,17.8,14.3c2.7,0.7,8.6,2.6,13,4.2c18.7,7,33.5,10,52.4,10.9c28.5,1.3,52.9-2.1,106.5-14.7
		c12.5-3,22.9-5.3,23.1-5.2c0.1,0.2-4.9,2.9-11.2,6.1c-34.2,17.7-59.2,26.2-87.6,30C1999.3,12050.5,1967.6,12051,1952.9,12050z"/>
	<path class="st3" d="M1591.8,12014.1c3.9-3.4,5.5-4.5,6.4-3.8c0.6,0.5,1.7,0.5,2.3,0.2c0.8-0.3,0.9-0.3,0.3,0.2
		c-1.4,1.3-13,8.1-13.7,8.1C1586.8,12018.8,1588.8,12016.7,1591.8,12014.1z"/>
	<path class="st3" d="M1788.7,11971.1c0.4-0.5,1-0.6,1.4-0.4c1.3,0.7,1,1.2-0.6,1.2C1788.7,11971.8,1788.4,11971.5,1788.7,11971.1z"
		/>
	<path class="st3" d="M2419.9,11925.3c-0.6-0.5-21.8-4.1-32.1-5.4c-15.1-1.9-26-2.7-63.5-4.8c-51.6-2.9-49.5-2.6-61.8-7.8
		c-11-4.6-20.8-7.7-29.5-9.2c-4.4-0.8-5.5-1.3-5.8-2.7c-0.8-2.6,1.1-4.1,4.9-4.1c3.8,0,9.7-1.3,10.4-2.4c0.4-0.4-0.5-1.9-1.9-3.3
		c-1.3-1.3-3.6-4.6-5-7.2c-2.5-4.6-2.5-4.7-0.8-6c1-0.7,4.2-1.7,7.2-2.3c6.6-1.3,14.2-0.5,35.3,3.6c25.8,5,47.7,11.5,98.1,29
		c18,6.3,39.6,13.5,48,16.2c18,5.6,19,6.7,5.8,6.7C2424.2,11925.7,2420.1,11925.5,2419.9,11925.3z"/>
	<path class="st3" d="M1407,11890.3c0.8-0.8,50.5-18.9,61.1-22.3c10.5-3.3,26.5-7.5,38.2-9.9l5.8-1.2l-8.9,0.3
		c-4.9,0.2-12.5,0.6-17,0.9c-9.8,0.6-9.4-0.1,2.5-3.9c19.8-6.4,43.8-11.4,71.8-15c14.7-1.8,18.1-2,51.8-2c19.8,0,42.1,0.2,49.7,0.5
		c12.5,0.5,13.4,0.5,12.2,1.8c-2,1.9-1.7,2.4,2.7,6.3c2.2,1.9,4,3.7,4,4c0,1.8-5.5,5.8-12.5,9c-9.7,4.5-10.6,5.7-8,11.4l1.9,4.1
		l-2,1.3c-2.6,1.8-3,1.8-4-0.3c-0.8-1.6-1.7-1.9-7.4-2.2c-5.9-0.3-6.8-0.6-8.6-2.6l-2.1-2.2l-20-0.5c-14.3-0.3-26.3,0-42,0.9
		c-12.1,0.7-31.8,1.6-43.8,2l-21.9,0.5l-34.5,6.4c-19,3.5-41.3,7.7-49.7,9.2c-8.3,1.5-16.2,3-17.5,3.2
		C1407.5,11890.4,1406.7,11890.4,1407,11890.3z"/>
	<path class="st3" d="M2254.9,11778.5c-3-1.3-6.4-3-7.5-3.8l-2.1-1.5l6.5-5.8c18.5-16.4,40.6-24.8,75.3-28.7
		c10-1.1,19.6-1.3,63.4-1.1c57.5,0.2,65.7-0.2,76.8-3.8c4-1.3,7.6-2.3,8-2.3c0.3,0-0.8,1.2-2.4,2.7c-2.1,2-3,3.4-3,5.3
		c0,2.1-0.6,3-3.7,4.9c-15.7,9.9-33.1,15.7-57.5,18.7c-9.8,1.3-26.2,2.3-51,3.6c-33.4,1.6-41.1,2.7-60.4,8.2
		C2274.1,11781.6,2264.1,11782.5,2254.9,11778.5z"/>
	<path class="st3" d="M1688.2,11765.9c0-1.5,0.2-2.1,0.4-1.3c0.2,0.7,0.2,2,0,2.7C1688.3,11768.1,1688.2,11767.4,1688.2,11765.9z"/>
	<path class="st3" d="M1659.7,11740.5c-2.1-1.3-10.8-1.6-18.7-0.4c-6.7,1-11.5,0.4-14.6-1.9c-1.3-1-3.8-2-5.5-2.3
		c-5.1-0.8-13.9-4.8-24-11c-9.6-5.7-17.7-9.9-19.4-9.9c-0.5,0-1.3-0.9-1.9-2.1c-1.3-3.2-6.7-6-20.1-10.9c-6.6-2.3-15.4-6-19.6-8.1
		c-4.2-2.1-9-4.5-10.7-5.2c-3.8-1.6-12.5-3.5-12.5-2.7c0,0.4,0.5,0.9,1.2,1c0.5,0.2-0.8,0.5-3,0.5c-4.7,0.1-7.1-1.4-4.8-3.1
		c2-1.5,1-2.1-4.4-2.7c-5.4-0.6-7.2-1.6-8.9-4.4c-0.8-1.5-2-2-4.5-2.2c-1.8-0.2-3.3-0.5-3.3-0.9c0-0.4-2.5-1.1-5.6-1.6l-5.5-1l4-0.7
		c6.7-1,7-1.3,3.6-3.1c-1.7-0.9-9.8-5.5-17.9-10.1s-17.4-9.6-20.5-11l-5.8-2.7l6.3-0.2c4.4-0.2,10.6,0.5,20.1,2.2
		c7.9,1.4,17.8,2.6,23.2,2.8l9.4,0.3l-4-1.7c-2.2-0.9-9.5-3.4-16.1-5.4c-6.6-2-11.6-3.8-11.2-3.8c0.5-0.1,8.1,1.2,16.8,2.7
		c8.8,1.5,19.7,3.1,24.2,3.5c25.2,2.6,49.1,8.2,82.5,19.3c8.4,2.8,18.3,6.3,21.9,7.8c10,4.1,16.9,6.1,31.1,9.2
		c18.3,4,25.2,6.5,32.9,11.9c3.6,2.4,3.8,2.8,4.4,8.1c0.4,4.1,0.4,5.9-0.5,6.7c-1,1.1-0.8,1.6,1.3,3.1c2.3,1.7,2.4,2,1.5,5.2
		c-2.4,8.5-4.7,10.6-8.6,8.1c-1.8-1.2-3.9-0.4-3.9,1.4c0,1.2,3.8,4.4,5.1,4.4c2.1,0-0.7,5.2-4.6,8.5
		C1664.5,11741.9,1662.6,11742.4,1659.7,11740.5z"/>
	<path class="st3" d="M2216.2,11650c-4.6-0.8-5.7-1.6-3.8-2.7c2-1.1-0.4-2-5-2c-3.8,0-5.3-0.4-6.8-1.7l-1.9-1.6l9.8-8.4
		c20.5-17.5,40.9-28.7,86.7-47.4c12.3-5,27.9-11.6,34.7-14.6c6.7-3,12.3-5.3,12.3-5.2c0,1-5.9,12.6-8.2,16.2
		c-10.9,17.1-30.5,34.7-45.5,40.9c-3.7,1.5-12.9,6.3-20.5,10.7c-14.5,8.4-23.7,12.8-30.4,14.6
		C2232,11650.5,2221.9,11650.9,2216.2,11650z"/>
	<path class="st3" d="M1728.7,11613.7c-1.3-1-2.2-2.6-2.2-3.4c0-0.9-2.5-3.3-6.4-6.1c-44.8-31.4-93.2-77.4-144.7-137.2
		c-7.8-9-8.2-9.7-6.6-10.7c1.5-1,1.5-1.2-0.6-3.1c-1.3-1.2-6.3-5.1-11.3-8.6c-4.9-3.6-9.7-7.4-10.6-8.6c-2-2.7-3.2-3.3,22.1,11.7
		c11.2,6.7,20.3,11.8,20.3,11.4c0-1.6-4-7.6-7.9-11.7c-3.8-4-3.5-3.8,3.6,2c15.1,12.4,21.1,16.3,24.6,15.9c2.4-0.2,2.1-0.7-7.8-10
		c-11.3-10.7-11-10.8,1.8-0.8c26.8,21.1,46.8,37.6,109.6,90.9c19.2,16.4,36,30.5,37.4,31.6c3.3,2.6,3,4.7-1.3,11
		c-4.4,6.3-5.2,9.8-3.1,12.6c1.5,2,1.4,2.2-1.9,6.9c-3.6,4.9-8.1,8.4-11.2,8.4C1731.6,11615.6,1729.9,11614.8,1728.7,11613.7z"/>
	<path class="st3" d="M1762.8,11603c4.4-4.2,23.5-13.2,26.4-12.3c0.4,0.2-2.1,2.2-5.7,4.5c-4.8,3.2-7.2,4.3-9.8,4.5
		c-2.1,0.1-4.7,1-7.1,2.5C1762.3,11605.1,1760.3,11605.4,1762.8,11603z"/>
	<path class="st3" d="M1918,11563.2c0-0.4,0.6-0.5,1.3-0.3c0.7,0.3,1.3,0.6,1.3,0.8c0,0.2-0.6,0.3-1.3,0.3
		S1918,11563.6,1918,11563.2z"/>
	<path class="st3" d="M2073,11556.6c-6.5-1.1-18.3-5.3-20-7.3c-0.8-0.8-0.7-1.4,0.4-2.4c1.6-1.6,1.9-3.4,0.4-4.6
		c-0.6-0.5,0.3-3.3,3.2-9.3c5.3-10.7,10.3-22.5,19.2-44.9c17.5-43.9,26.2-61.7,39.9-80.5l4.7-6.6l0.3,7.8c0.6,18.1-1.7,44-6.1,67.2
		c-2.2,11.7-7.2,33.1-9.7,41c-1.2,3.8-1.2,4.5,0.1,6.6c0.7,1.3,1.5,3.4,1.6,4.8c0.2,1.3,0.6,4.5,1,6.9c0.6,4.8,0.4,5.1-3.8,5.6
		c-0.9,0.2-1.7,0.7-1.8,1.3s-0.4,3.4-0.7,6.3l-0.5,5.2l-4.7,1.5C2090.2,11557.3,2080.8,11557.8,2073,11556.6z"/>
	<path class="st3" d="M1875.9,11544.7c-2.7-1.5-5.5-3.1-6.1-3.4c-1-0.5-0.9-1.3,0.6-3.8l1.8-3.2l-8.8-16.7
		c-21.5-40.9-33.2-68.3-69-161.4c-20.4-52.9-22.1-57.8-20.9-59.3l1.3-1.6l3.8,2.3c5,3.1,8.8,6.7,16,15.9c5.2,6.5,7.9,11.4,20.7,38
		c34.2,70.9,52.8,103.6,78.7,138.2c7.1,9.5,8.3,10.7,10.5,10.7c3,0,4.1,1.1,5.3,5.4c0.9,3.7,3.1,6.3,5.4,6.3c0.9,0-0.2,1.3-2.8,3.5
		c-4.2,3.4-4.7,4.1-4.4,6.7c0.2,1.6-6.4,9.5-12.3,14.6c-4.2,3.7-13.6,10.3-14.5,10.3C1881,11547.5,1878.6,11546.3,1875.9,11544.7z"
		/>
</g>
<g transform="translate(0.000000,1280.000000) scale(0.100000,-0.100000)">
	<path class="st4" d="M3412.2,12266.3c-0.2-21.5-0.8-24.4-2.2-11.1c-0.4,3.3-0.8,5.7-0.9,5.2c-0.2-0.4-0.8-3.4-1.4-6.5
		c-1.5-7.6-2.5-5.8-2.7,4.5c0,4.5-0.4,8.9-0.8,9.8c-0.4,0.9-0.7-4.1-0.7-12.1c0.1-7.5-0.4-21.5-0.9-30.9
		c-2.1-36.9-1.1-85.5,2.1-111.2c1.2-9.6,4.7-29.7,5.1-29.8c0.1,0,2.4-0.7,5-1.5l4.9-1.4l1.7,1.8c1.6,1.8,1.7,1.8,2.7,0.3
		c0.6-0.9,1.9-3.6,3-6.1c4-9.4,8.4-12.8,16.3-12.4c2.3,0.1,2.6,2.2,0.6,5.5c-1.1,1.9-1.1,2.4-0.1,3.1c0.7,0.5,1.4,1.9,1.7,3.1
		c0.4,1.4,1.3,2.5,2.5,2.8c1.8,0.5,1.9,0.9,1.5,8.1c-0.3,5.6-0.8,8.3-2.2,10.6c-1,1.7-3.6,8.6-5.7,15.3c-3.3,10.3-3.9,13.2-3.9,19.3
		c0,4.3,0.4,7.6,1,8.1c0.8,0.7,1.2,0.4,1.6-1.1c0.3-1.1,1-2,1.4-2c1.1,0,1.2-0.4-0.4,6.4c-2.2,9.5-2.1,9.2-4.4,9.2
		c-2,0-2.1,0.2-2.6,9.2c-1,15.2-2.7,25-10.9,62c-5.7,25.8-8.1,39.3-9.8,53.3l-1.2,10.5L3412.2,12266.3z"/>
	<path class="st4" d="M3617.1,12224.6c-12.1-14.2-20.7-28-40.3-65.2c-13.4-25.4-14-26.7-22.2-45c-7.2-16.2-11.4-27-13.9-35.6
		c-1.6-5.4-3.8-22.1-3-22.8c1-0.8,5.9,2,13.9,7.8c12.8,9.4,13.2,9.9,19.2,23.6c6.7,15.6,17,43.4,28.1,76.3
		c11.1,32.7,16.6,48.5,20.5,58.6c1.7,4.4,3,8,2.8,8S3619.7,12227.7,3617.1,12224.6z"/>
	<path class="st4" d="M3192.5,12220.3c3.8-8.6,22.6-67.3,21.7-68c-0.2-0.2-1.9,3.1-3.7,7.2c-1.9,4.1-3.6,7.3-3.8,7.1
		c-0.6-0.5,13.4-36.3,18.4-47.2c11-23.6,22.6-40.2,38.5-55.3c5.9-5.6,6.7-6.1,10-6.1c5.2,0,9.5,2,11.5,5.6c2.1,3.6,2.1,6.5,0.2,13.3
		c-1.4,4.6-1.7,5.1-3.1,4.3c-1.3-0.7-2-0.5-3.6,1.3c-3.3,3.6-30.3,41.7-39.6,55.8c-16.5,25.1-36.2,60.2-43.8,77.7
		c-1.3,3.1-2.7,5.6-3,5.6S3192.2,12221,3192.5,12220.3z"/>
	<path class="st4" d="M3807.9,12115.5c-25.7-9.1-50.4-23.3-86.1-49.6c-48.2-35.5-67.3-48.9-74.3-52.1c-1.3-0.5-5.6-1.6-9.8-2.3
		c-10.3-1.8-13.2-3-17.5-7c-2.7-2.5-4.5-3.4-7.3-3.8c-3.5-0.5-9.2-3.8-9.2-5.2c0-0.4,1.5-0.8,3.4-0.9c3.1-0.2,3.5-0.5,6.3-5.3
		c3.6-6.3,3.2-7.4-3.9-11.5c-4.7-2.7-4.9-3-2.9-3.2c2.4-0.2,3.3-2.3,3.7-8.5l0.2-2.6h5.4c8,0,18.4,2.5,34.3,8.1
		c7.7,2.7,15.8,5.5,17.8,6c3.3,0.9,4.2,1.7,8.8,8.1c26.4,37.4,60.3,66.8,131.1,113.5c11.5,7.7,21.1,14.3,21.2,14.8
		c0.6,2.3-1.5,3.3-7.8,3.7C3815.5,12117.9,3814,12117.7,3807.9,12115.5z"/>
	<path class="st4" d="M3020.8,12058.8c1.1-1.1,6.4-6.7,12-12.5c5.6-5.9,12.9-12.4,16.5-15c7.6-5.2,15.8-12.7,17.9-16.2
		c0.8-1.4,1.3-2.5,0.9-2.5c-0.3,0-2.9,1.7-5.6,3.8c-6.8,5.2-12.6,8.8-14.1,8.8c-2.2,0,1.8-4.1,9.8-9.9c4.1-3.1,8.3-7,9.5-8.8
		l2.1-3.2h-1.9c-2.8,0-6.3,1.8-9.8,5.1c-1.7,1.6-4.3,3.6-5.8,4.5l-2.7,1.7l2.2-2.3c15-15.8,33.5-33.7,45.1-43.8
		c15.6-13.5,25.6-20.3,39.1-26.4c8.1-3.6,20.2-7.4,21.1-6.7c0.2,0.2,1.2,3.1,2.1,6.4c1.4,4.8,1.6,6.6,0.9,8.5
		c-2.2,5.4,0.1,8.5,7.2,9.5c2,0.3,5.2,1.3,7.2,2c2.8,1.3,3.5,2,3.5,3.8c0,2.7-2.1,4.5-7.3,6c-7.2,2.1-9.1,5.8-3,5.8
		c3.8,0,4.5,0.9,2.8,3.8c-2.3,3.8-4,4.9-6.9,4.4c-2.8-0.5-3.6,0.4-4.8,5.4l-0.5,2.3l-9.6-0.5c-8.3-0.5-10.3-0.3-14.9,1.1
		c-14.3,4.3-28.5,12.1-54.2,29.8c-24.8,17.1-29.5,19.9-31.5,18.8c-1.3-0.7-2.2-0.6-4.2,0.2c-3.3,1.6-11.8,7.5-18.9,13.3
		C3021.6,12058.6,3019.8,12059.9,3020.8,12058.8z"/>
	<path class="st4" d="M3404.2,12055.5c-19.9-1.4-39.8-6-54.6-12.6c-4.7-2.1-11.4-4.5-14.9-5.2c-11.9-2.7-19.4-7-39.6-22.7
		c-16.3-12.6-21.8-16.4-29.4-19.7l-5.6-2.5l2.4-1.7l2.4-1.6l-2.4-1.6c-3.3-2.3-5.5-2.7-7.7-1.7c-1.6,0.8-2.3,0.5-4.9-1.6
		c-3.6-3-3.7-3.5-1.2-4.2c1.7-0.5,1.8-0.6,0.3-2c-2.1-2-0.5-1.9,2.1,0.2c1.5,1.3,2.3,1.5,3,0.9c2.4-2.1-6.4-10.5-12.5-12
		c-3.2-0.7-3.8-1.3-6.5-6c-2.7-4.9-6.4-8.1-9.4-8.1c-1.9,0-1.3,2.3,0.8,3.2c1.6,0.8,1.7,1,0.7,1.3c-0.7,0.2-2.4,1.3-3.7,2.6
		c-2.7,2.5-2.1,3.1,3.6,3.1c1.8,0,4.1,0.5,5.1,1.3c1.6,1.2,1.6,1.2-0.4,0.7c-1.1-0.3-4,0.1-6.5,0.8c-2.4,0.7-5.5,1.1-6.6,0.9
		c-4.4-0.9-13.3-11.2-22.7-26.1c-3.1-4.9-7.5-11-9.8-13.7c-4.2-5-6.4-9-6.4-12.1c0-1-0.6-2.8-1.3-4.1c-1.3-2.2-2.5-2.7-5.9-2.5
		c-3.4,0.2-13.6-24.4-13.4-32.4c0.1-3.4-0.6-6.4-2.5-11c-2.1-4.9-3.3-10.9-5.8-27.2c-5.3-34.4-6.2-44.2-5.6-61.8
		c0.4-16,1.6-23.5,5.1-33.7c1.1-3,2.5-7.9,3.2-10.9c0.7-3.1,2.5-8.8,3.9-12.8c2.7-7.2,3.2-12.4,1.8-15.5c-0.6-1.3-0.9-1.1-2.4,2
		c-1,2-2.5,5.4-3.3,7.7c-0.9,2.2-1.8,4.1-2,4.1c-0.3,0-0.2-2.2,0.2-4.9c0.6-4.9,3-10.6,17.1-39.8c18-37.4,33-52.5,66.7-66.8
		c6.6-2.8,13.2-6.1,14.6-7.4c3.8-3.4,12-7.7,23.3-12.4c23.5-9.8,49.8-15,82.6-16.4l12.8-0.5l-0.3,2.2c-0.4,3.8,3.5,4.5,29.3,4.7
		c14.9,0.1,26.1,0.6,33.6,1.5c6.2,0.7,18.4,1.6,27.3,2c22.4,1,29.8,2.7,64.4,14.1c9.4,3.1,20.2,6.5,24.2,7.6
		c16.9,4.7,50.9,26.4,69.4,44.2c33.6,32.6,52,67.1,57.4,107.5c1.5,11.6,1.5,49.6,0,58.3c-4.1,23.6-10,40.2-22,61.5
		c-11.7,20.7-25.5,37.7-45.2,55.4c-35.3,32-72.9,49.7-118.3,55.8c-13.8,1.9-41.5,1.9-54.1,0.1c-40.4-6-69-19.7-102.6-49
		c-25.8-22.6-42-44.8-52.3-71.7c-6.9-18-9.5-32.1-9.4-51.3c0-13.9,0.8-21.7,3.7-34c8.4-36.2,38.9-71.2,76.4-87.3
		c9.9-4.3,30-10.4,41.6-12.7c23.1-4.5,47.8-3.7,89.5,3c13,2,13,2,19.7,6.3c18.8,12,35.2,31,47.1,54.6c4.2,8.5,5,10.9,7.5,23.9
		c3.8,18.9,4.4,29.8,2.2,38c-1,3.7-1.6,9.9-1.8,15.6c-0.2,10.4-1.3,14.8-8,32.3c-3.6,9.3-4.6,11-9.5,16.2
		c-16.5,17.7-40.6,30.1-66.8,34.5c-4.8,0.8-7.2,0.6-22.8-1.6c-20.9-3-26.9-4.3-35.5-7.8c-12.3-4.9-22.1-16.1-21.8-25.1
		c0.2-4.1,5.4-52.3,6.1-55.9c0.8-4.5,6.3-13.5,10.9-18.1c2.5-2.3,7.3-6,10.8-8.1c8.5-5,23.2-11,24.5-10c0.6,0.5,3.8,1.2,7.2,1.6
		c6.9,0.9,8.9,2,8.5,4.4c-0.3,1.5-1.1,1.7-7.4,2.1c-9,0.6-23.6,5.4-31.3,10.3c-9.6,6.1-16.8,17.7-19.2,30.6
		c-0.4,2.7-1.5,11.4-2.2,19.3c-0.7,8-1.5,15.2-1.8,16.1c-0.4,1.3,0.8,2.5,4.7,5.2c13.6,9.7,33.9,14.6,60.4,14.6
		c9.7,0,9.8,0,17.5-3.3c11.3-4.9,20-11.4,22.9-17.1c1.4-2.9,7.3-26.5,10.3-41.5c6.1-31.1,4-50.5-7.3-69.1
		c-6.4-10.5-11.7-16.6-18.5-21.4c-16.5-11.7-38.8-18-66.7-18.9c-39.1-1.3-71,7.5-93,25.6c-7.2,6-10.9,10.3-17.8,20.4
		c-9.6,14.2-14.6,26.6-17.3,42.4c-2.2,13.2-1.3,36.6,1.9,49.9c4.7,19.5,12.7,36.8,23.5,50.7c25.2,32.1,57.2,54.6,91.5,64.7
		c16.5,4.9,36.7,7.4,51.4,6.4c10.4-0.6,33.8-3.9,42.5-6c50.9-11.8,99.1-53.9,117.1-102.2c9.8-26.3,7.6-71.8-5.5-110.2
		c-5.8-17.3-18.3-41.1-29.4-56.1c-26.3-35.5-40-46.3-83.3-65.5c-11.7-5.2-15.7-6.6-18.7-6.6c-5.7,0-14.2-2.1-27.2-6.7
		c-16.6-5.9-17.1-6-29.3-6.2c-9.7-0.2-12.9-0.6-25.8-3.6c-13.7-3.1-15.6-3.4-26-3.4c-6.2,0-21.4,0.1-33.7,0.2
		c-24.5,0.1-32.1,0.7-39.6,3.6c-2.7,1-6.8,2-9.1,2.3c-5.2,0.6-8.1,2.6-13.5,9.2c-4.1,4.9-8.9,8.3-10,6.8c-1.3-1.7-5.7-0.6-12,2.8
		c-3.5,2-7.6,3.7-8.9,3.8c-2,0.1-4,1.6-8.2,5.8c-3.1,3.1-7,7.1-8.4,8.9c-1.5,1.8-5.6,6.6-9.1,10.6c-11,12.4-19.4,26.9-23.5,40.6
		c-5.4,17.8-7.9,23-11.1,23c-1.1,0-1.1,0.5-0.3,2.8c0.7,2,0.7,3.9,0,6.8c-1.3,5.5-5.3,13.2-6.7,12.9c-2-0.4-4.5,4.9-3.9,8.5
		c0.3,1.8,0.1,3.5-0.4,3.8c-1.5,0.9-1,2,1,2c1.8,0,1.9,0.3,1.5,4c-0.3,2.6-1,4.3-1.9,4.7c-0.8,0.4-1.9,2.6-2.4,4.9
		c-1,4.3-0.4,8.8,2.3,16.5c0.7,2.2,1.7,8.3,2.2,13.5c0.8,9.2,2.1,14.6,8.5,34.7c1.7,5.1,2.5,9.8,2.7,14.9c0.1,4.1,0.4,8.1,0.8,9
		c1.3,3.8,2.9,5.5,4.9,5.7c1.8,0.2,4.2,3,12.8,15c9.8,13.6,10.5,14.9,9.5,16.8c-1.4,2.7-0.4,6.6,3.3,12.9l3.2,5.2l-4.1-3.5
		c-2.9-2.3-4.1-4.1-4.1-5.5c0-1.6-0.4-2-1.9-2c-1.1,0.1-2.2-0.5-2.5-1.1c-4.5-8.2-8.2-12.4-10.7-11.7c-1.5,0.5,12.8,25,20.6,35.2
		c17.1,22.5,38.7,43,66,62.4c5.4,3.8,7,4.6,9.1,4.3c1.4-0.2,4.7,0.1,7.3,0.6c5.6,1.2,17.1,6,16.5,7c-1,1.3,2.9,3.3,8.5,4.4
		c3.1,0.5,6.6,1.3,7.8,1.6c1.4,0.4,2,0.2,2-0.8c0-0.7,0.2-1.3,0.4-1.3c0.4,0,7.8,2.4,8.3,2.7c0.1,0.1-0.2,1.1-0.6,2.2
		c-1.9,4.2,7.6,11.8,17.8,14.3c2.7,0.7,8.6,2.6,13,4.2c18.7,7,33.5,10,52.4,10.9c28.5,1.3,52.9-2.1,106.5-14.7
		c12.5-3,22.9-5.3,23.1-5.2c0.1,0.2-4.9,2.9-11.2,6.1c-34.2,17.7-59.2,26.2-87.6,30C3450.6,12056,3418.9,12056.5,3404.2,12055.5z"/>
	<path class="st4" d="M3043.1,12019.6c3.9-3.4,5.5-4.5,6.4-3.8c0.6,0.5,1.7,0.5,2.3,0.2c0.8-0.3,0.9-0.3,0.3,0.2
		c-1.4,1.3-13,8.1-13.7,8.1C3038.1,12024.3,3040.1,12022.2,3043.1,12019.6z"/>
	<path class="st4" d="M3240,11976.6c0.4-0.5,1-0.6,1.4-0.4c1.3,0.7,1,1.2-0.6,1.2C3240,11977.4,3239.7,11977,3240,11976.6z"/>
	<path class="st4" d="M3871.2,11930.8c-0.6-0.5-21.8-4.1-32.1-5.4c-15.1-1.9-26-2.7-63.5-4.8c-51.6-2.9-49.5-2.6-61.8-7.8
		c-11-4.6-20.8-7.7-29.5-9.2c-4.4-0.8-5.5-1.3-5.8-2.7c-0.8-2.6,1.1-4.1,4.9-4.1c3.8,0,9.7-1.3,10.4-2.4c0.4-0.4-0.5-1.9-1.9-3.3
		c-1.3-1.3-3.6-4.6-5-7.2c-2.5-4.6-2.5-4.7-0.8-6c1-0.7,4.2-1.7,7.2-2.3c6.6-1.3,14.2-0.5,35.3,3.6c25.8,5,47.7,11.5,98.1,29
		c18,6.3,39.6,13.5,48,16.2c18,5.6,19,6.7,5.8,6.7C3875.5,11931.2,3871.4,11931,3871.2,11930.8z"/>
	<path class="st4" d="M2858.3,11895.8c0.8-0.8,50.5-18.9,61.1-22.3c10.5-3.3,26.5-7.5,38.2-9.9l5.8-1.2l-8.9,0.3
		c-4.9,0.2-12.5,0.6-17,0.9c-9.8,0.6-9.4-0.1,2.5-3.9c19.8-6.4,43.8-11.4,71.8-15c14.7-1.8,18.1-2,51.8-2c19.8,0,42.1,0.2,49.7,0.5
		c12.5,0.5,13.4,0.5,12.2,1.8c-2,1.9-1.7,2.4,2.7,6.3c2.2,1.9,4,3.7,4,4c0,1.8-5.5,5.8-12.5,9c-9.7,4.5-10.6,5.7-8,11.4l1.9,4.1
		l-2,1.3c-2.6,1.8-3,1.8-4-0.3c-0.8-1.6-1.7-1.9-7.4-2.2c-5.9-0.3-6.8-0.6-8.6-2.6l-2.1-2.2l-20-0.5c-14.3-0.3-26.3,0-42,0.9
		c-12.1,0.7-31.8,1.6-43.8,2l-21.9,0.5l-34.5,6.4c-19,3.5-41.3,7.7-49.7,9.2c-8.3,1.5-16.2,3-17.5,3.2
		C2858.8,11895.9,2858,11895.9,2858.3,11895.8z"/>
	<path class="st4" d="M3706.2,11784.1c-3-1.3-6.4-3-7.5-3.8l-2.1-1.5l6.5-5.8c18.5-16.4,40.6-24.8,75.3-28.7
		c10-1.1,19.6-1.3,63.4-1.1c57.5,0.2,65.7-0.2,76.8-3.8c4-1.3,7.6-2.3,8-2.3c0.3,0-0.8,1.2-2.4,2.7c-2.1,2-3,3.4-3,5.3
		c0,2.1-0.6,3-3.7,4.9c-15.7,9.9-33.1,15.7-57.5,18.7c-9.8,1.3-26.2,2.3-51,3.6c-33.4,1.6-41.1,2.7-60.4,8.2
		C3725.4,11787.1,3715.4,11788,3706.2,11784.1z"/>
	<path class="st4" d="M3139.5,11771.5c0-1.5,0.2-2.1,0.4-1.3c0.2,0.7,0.2,2,0,2.7C3139.6,11773.6,3139.5,11773,3139.5,11771.5z"/>
	<path class="st4" d="M3111,11746c-2.1-1.3-10.8-1.6-18.7-0.4c-6.7,1-11.5,0.4-14.6-1.9c-1.3-1-3.8-2-5.5-2.3
		c-5.1-0.8-13.9-4.8-24-11c-9.6-5.7-17.7-9.9-19.4-9.9c-0.5,0-1.3-0.9-1.9-2.1c-1.3-3.2-6.7-6-20.1-10.9c-6.6-2.3-15.4-6-19.6-8.1
		c-4.2-2.1-9-4.5-10.7-5.2c-3.8-1.6-12.5-3.5-12.5-2.7c0,0.4,0.5,0.9,1.2,1c0.5,0.2-0.8,0.5-3,0.5c-4.7,0.1-7.1-1.4-4.8-3.1
		c2-1.5,1-2.1-4.4-2.7c-5.4-0.6-7.2-1.6-8.9-4.4c-0.8-1.5-2-2-4.5-2.2c-1.8-0.2-3.3-0.5-3.3-0.9c0-0.4-2.5-1.1-5.6-1.6l-5.5-1l4-0.7
		c6.7-1,7-1.3,3.6-3.1c-1.7-0.9-9.8-5.5-17.9-10.1c-8.1-4.6-17.4-9.6-20.5-11l-5.8-2.7l6.3-0.2c4.4-0.2,10.6,0.5,20.1,2.2
		c7.9,1.4,17.8,2.6,23.2,2.8l9.4,0.3l-4-1.7c-2.2-0.9-9.5-3.4-16.1-5.4c-6.6-2-11.6-3.8-11.2-3.8c0.5-0.1,8.1,1.2,16.8,2.7
		c8.8,1.5,19.7,3.1,24.2,3.5c25.2,2.6,49.1,8.2,82.5,19.3c8.4,2.8,18.3,6.3,21.9,7.8c10,4.1,16.9,6.1,31.1,9.2
		c18.3,4,25.2,6.5,32.9,11.9c3.6,2.4,3.8,2.8,4.4,8.1c0.4,4.1,0.4,5.9-0.5,6.7c-1,1.1-0.8,1.6,1.3,3.1c2.3,1.7,2.4,2,1.5,5.2
		c-2.4,8.5-4.7,10.6-8.6,8.1c-1.8-1.2-3.9-0.4-3.9,1.4c0,1.2,3.8,4.4,5.1,4.4c2.1,0-0.7,5.2-4.6,8.5
		C3115.8,11747.4,3113.9,11747.9,3111,11746z"/>
	<path class="st4" d="M3667.5,11655.5c-4.6-0.8-5.7-1.6-3.8-2.7c2-1.1-0.4-2-5-2c-3.8,0-5.3-0.4-6.8-1.7l-1.9-1.6l9.8-8.4
		c20.5-17.5,40.9-28.7,86.7-47.4c12.3-5,27.9-11.6,34.7-14.6c6.7-3,12.3-5.3,12.3-5.2c0,1-5.9,12.6-8.2,16.2
		c-10.9,17.1-30.5,34.7-45.5,40.9c-3.7,1.5-12.9,6.3-20.5,10.7c-14.5,8.4-23.7,12.8-30.4,14.6
		C3683.3,11656,3673.2,11656.5,3667.5,11655.5z"/>
	<path class="st4" d="M3180,11619.2c-1.3-1-2.2-2.6-2.2-3.4c0-0.9-2.5-3.3-6.4-6.1c-44.8-31.4-93.2-77.4-144.7-137.2
		c-7.8-9-8.2-9.7-6.6-10.7c1.5-1,1.5-1.2-0.6-3.1c-1.3-1.2-6.3-5.1-11.3-8.6c-4.9-3.6-9.7-7.4-10.6-8.6c-2-2.7-3.2-3.3,22.1,11.7
		c11.2,6.7,20.3,11.8,20.3,11.4c0-1.6-4-7.6-7.9-11.7c-3.8-4-3.5-3.8,3.6,2c15.1,12.4,21.1,16.3,24.6,15.9c2.4-0.2,2.1-0.7-7.8-10
		c-11.3-10.7-11-10.8,1.8-0.8c26.8,21.1,46.8,37.6,109.6,90.9c19.2,16.4,36,30.5,37.4,31.6c3.3,2.6,3,4.7-1.3,11
		c-4.4,6.3-5.2,9.8-3.1,12.6c1.5,2,1.4,2.2-1.9,6.9c-3.6,4.9-8.1,8.4-11.2,8.4C3182.9,11621.1,3181.2,11620.3,3180,11619.2z"/>
	<path class="st4" d="M3214.1,11608.5c4.4-4.2,23.5-13.2,26.4-12.3c0.4,0.2-2.1,2.2-5.7,4.5c-4.8,3.2-7.2,4.3-9.8,4.5
		c-2.1,0.1-4.7,1-7.1,2.5C3213.6,11610.6,3211.6,11611,3214.1,11608.5z"/>
	<path class="st4" d="M3369.3,11568.7c0-0.4,0.6-0.5,1.3-0.3c0.7,0.3,1.3,0.6,1.3,0.8c0,0.2-0.6,0.3-1.3,0.3
		C3369.9,11569.5,3369.3,11569.2,3369.3,11568.7z"/>
	<path class="st4" d="M3524.3,11562.1c-6.5-1.1-18.3-5.3-20-7.3c-0.8-0.8-0.7-1.4,0.4-2.4c1.6-1.6,1.9-3.4,0.4-4.6
		c-0.6-0.5,0.3-3.3,3.2-9.3c5.3-10.7,10.3-22.5,19.2-44.9c17.5-43.9,26.2-61.7,39.9-80.5l4.7-6.6l0.3,7.8c0.6,18.1-1.7,44-6.1,67.2
		c-2.2,11.7-7.2,33.1-9.7,41c-1.2,3.8-1.2,4.5,0.1,6.6c0.7,1.3,1.5,3.4,1.6,4.8c0.2,1.3,0.6,4.5,1,6.9c0.6,4.8,0.4,5.1-3.8,5.6
		c-0.9,0.2-1.7,0.7-1.8,1.3c-0.1,0.6-0.4,3.4-0.7,6.3l-0.5,5.2l-4.7,1.5C3541.5,11562.8,3532.1,11563.4,3524.3,11562.1z"/>
	<path class="st4" d="M3327.2,11550.2c-2.7-1.5-5.5-3.1-6.1-3.4c-1-0.5-0.9-1.3,0.6-3.8l1.8-3.2l-8.8-16.7
		c-21.5-40.9-33.2-68.3-69-161.4c-20.4-52.9-22.1-57.8-20.9-59.3l1.3-1.6l3.8,2.3c5,3.1,8.8,6.7,16,15.9c5.2,6.5,7.9,11.4,20.7,38
		c34.2,70.9,52.8,103.6,78.7,138.2c7.1,9.5,8.3,10.7,10.5,10.7c3,0,4.1,1.1,5.3,5.4c0.9,3.7,3.1,6.3,5.4,6.3c0.9,0-0.2,1.3-2.8,3.5
		c-4.2,3.4-4.7,4.1-4.4,6.7c0.2,1.6-6.4,9.5-12.3,14.6c-4.2,3.7-13.6,10.3-14.5,10.3C3332.3,11553,3329.9,11551.8,3327.2,11550.2z"
		/>
</g>
<g transform="translate(0.000000,1280.000000) scale(0.100000,-0.100000)">
	<path class="st5" d="M4258.4,11168.1c-0.2-21.5-0.8-24.4-2.2-11.1c-0.4,3.3-0.8,5.7-0.9,5.2c-0.2-0.4-0.8-3.4-1.4-6.5
		c-1.5-7.6-2.5-5.8-2.7,4.5c0,4.5-0.4,8.9-0.8,9.8c-0.4,0.9-0.7-4.1-0.7-12.1c0.1-7.5-0.4-21.5-0.9-30.9
		c-2.1-36.9-1.1-85.5,2.1-111.2c1.2-9.6,4.7-29.7,5.1-29.8c0.1,0,2.4-0.7,5-1.5l4.9-1.4l1.7,1.8c1.6,1.8,1.7,1.8,2.7,0.3
		c0.6-0.9,1.9-3.6,3-6.1c4-9.4,8.4-12.8,16.3-12.4c2.3,0.1,2.6,2.2,0.6,5.5c-1.1,1.9-1.1,2.4-0.1,3.1c0.7,0.5,1.4,1.9,1.7,3.1
		c0.4,1.4,1.3,2.5,2.5,2.8c1.8,0.5,1.9,0.9,1.5,8.1c-0.3,5.6-0.8,8.3-2.2,10.6c-1,1.7-3.6,8.6-5.7,15.3c-3.3,10.3-3.9,13.2-3.9,19.3
		c0,4.3,0.4,7.6,1,8.1c0.8,0.7,1.2,0.4,1.6-1.1c0.3-1.1,1-2,1.4-2c1.1,0,1.2-0.4-0.4,6.4c-2.2,9.5-2.1,9.2-4.4,9.2
		c-2,0-2.1,0.2-2.6,9.2c-1,15.2-2.7,25-10.9,62c-5.7,25.8-8.1,39.3-9.8,53.3l-1.2,10.5L4258.4,11168.1z"/>
	<path class="st5" d="M4463.3,11126.4c-12.1-14.2-20.7-28-40.3-65.2c-13.4-25.4-14-26.7-22.2-45c-7.2-16.2-11.4-27-13.9-35.6
		c-1.6-5.4-3.8-22.1-3-22.8c1-0.8,5.9,2,13.9,7.8c12.8,9.4,13.2,9.9,19.2,23.6c6.7,15.6,17,43.4,28.1,76.3
		c11.1,32.7,16.6,48.5,20.5,58.6c1.7,4.4,3,8,2.8,8C4468.1,11132.1,4465.9,11129.6,4463.3,11126.4z"/>
	<path class="st5" d="M4038.7,11122.1c3.8-8.6,22.6-67.3,21.7-68c-0.2-0.2-1.9,3.1-3.7,7.2c-1.9,4.1-3.6,7.3-3.8,7.1
		c-0.6-0.5,13.4-36.3,18.4-47.2c11-23.6,22.6-40.2,38.5-55.3c5.9-5.6,6.7-6.1,10-6.1c5.2,0,9.5,2,11.5,5.6c2.1,3.6,2.1,6.5,0.2,13.3
		c-1.4,4.6-1.7,5.1-3.1,4.3c-1.3-0.7-2-0.5-3.6,1.3c-3.3,3.6-30.3,41.7-39.6,55.8c-16.5,25.1-36.2,60.2-43.8,77.7
		c-1.3,3.1-2.7,5.6-3,5.6C4038.3,11123.5,4038.4,11122.8,4038.7,11122.1z"/>
	<path class="st5" d="M4654.1,11017.3c-25.7-9.1-50.4-23.3-86.1-49.6c-48.2-35.5-67.3-48.9-74.3-52.1c-1.3-0.5-5.6-1.6-9.8-2.3
		c-10.3-1.8-13.2-3-17.5-7c-2.7-2.5-4.5-3.4-7.3-3.8c-3.5-0.5-9.2-3.8-9.2-5.2c0-0.4,1.5-0.8,3.4-0.9c3.1-0.2,3.5-0.5,6.3-5.3
		c3.6-6.3,3.2-7.4-3.9-11.5c-4.7-2.7-4.9-3-2.9-3.2c2.4-0.2,3.3-2.3,3.7-8.5l0.2-2.6h5.4c8,0,18.4,2.5,34.3,8.1
		c7.7,2.7,15.8,5.5,17.8,6c3.3,0.9,4.2,1.7,8.8,8.1c26.4,37.4,60.3,66.8,131.1,113.5c11.5,7.7,21.1,14.3,21.2,14.8
		c0.6,2.3-1.5,3.3-7.8,3.7C4661.7,11019.7,4660.2,11019.5,4654.1,11017.3z"/>
	<path class="st5" d="M3867,10960.6c1.1-1.1,6.4-6.7,12-12.5c5.6-5.9,12.9-12.4,16.5-15c7.6-5.2,15.8-12.7,17.9-16.2
		c0.8-1.4,1.3-2.5,0.9-2.5c-0.3,0-2.9,1.7-5.6,3.8c-6.8,5.2-12.6,8.8-14.1,8.8c-2.2,0,1.8-4.1,9.8-9.9c4.1-3.1,8.3-7,9.5-8.8
		l2.1-3.2h-1.9c-2.8,0-6.3,1.8-9.8,5.1c-1.7,1.6-4.3,3.6-5.8,4.5l-2.7,1.7l2.2-2.3c15-15.8,33.5-33.7,45.1-43.8
		c15.6-13.5,25.6-20.3,39.1-26.4c8.1-3.6,20.2-7.4,21.1-6.7c0.2,0.2,1.2,3.1,2.1,6.4c1.4,4.8,1.6,6.6,0.9,8.5
		c-2.2,5.4,0.1,8.5,7.2,9.5c2,0.3,5.2,1.3,7.2,2c2.8,1.3,3.5,2,3.5,3.8c0,2.7-2.1,4.5-7.3,6c-7.2,2.1-9.1,5.8-3,5.8
		c3.8,0,4.5,0.9,2.8,3.8c-2.3,3.8-4,4.9-6.9,4.4c-2.8-0.5-3.6,0.4-4.8,5.4l-0.5,2.3l-9.6-0.5c-8.3-0.5-10.3-0.3-14.9,1.1
		c-14.3,4.3-28.5,12.1-54.2,29.8c-24.8,17.1-29.5,19.9-31.5,18.8c-1.3-0.7-2.2-0.6-4.2,0.2c-3.3,1.6-11.8,7.5-18.9,13.3
		C3867.8,10960.5,3866,10961.7,3867,10960.6z"/>
	<path class="st5" d="M4250.4,10957.3c-19.9-1.4-39.8-6-54.6-12.6c-4.7-2.1-11.4-4.5-14.9-5.2c-11.9-2.7-19.4-7-39.6-22.7
		c-16.3-12.6-21.8-16.4-29.4-19.7l-5.6-2.5l2.4-1.7l2.4-1.6l-2.4-1.6c-3.3-2.3-5.5-2.7-7.7-1.7c-1.6,0.8-2.3,0.5-4.9-1.6
		c-3.6-3-3.7-3.5-1.2-4.2c1.7-0.5,1.8-0.6,0.3-2c-2.1-2-0.5-1.9,2.1,0.2c1.5,1.3,2.3,1.5,3,0.9c2.4-2.1-6.4-10.5-12.5-12
		c-3.2-0.7-3.8-1.3-6.5-6c-2.7-4.9-6.4-8.1-9.4-8.1c-1.9,0-1.3,2.3,0.8,3.2c1.6,0.8,1.7,1,0.7,1.3c-0.7,0.2-2.4,1.3-3.7,2.6
		c-2.7,2.5-2.1,3.1,3.6,3.1c1.8,0,4.1,0.5,5.1,1.3c1.6,1.2,1.6,1.2-0.4,0.7c-1.1-0.3-4,0.1-6.5,0.8c-2.4,0.7-5.5,1.1-6.6,0.9
		c-4.4-0.9-13.3-11.2-22.7-26.1c-3.1-4.9-7.5-11-9.8-13.7c-4.2-5-6.4-9-6.4-12.1c0-1-0.6-2.8-1.3-4.1c-1.3-2.2-2.5-2.7-5.9-2.5
		c-3.4,0.2-13.6-24.4-13.4-32.4c0.1-3.4-0.6-6.4-2.5-11c-2.1-4.9-3.3-10.9-5.8-27.2c-5.3-34.4-6.2-44.2-5.6-61.9
		c0.4-16,1.6-23.5,5.1-33.7c1.1-3,2.5-7.9,3.2-10.9c0.7-3.1,2.5-8.8,3.9-12.8c2.7-7.2,3.2-12.4,1.8-15.5c-0.6-1.3-0.9-1.1-2.4,2
		c-1,2-2.5,5.4-3.3,7.7c-0.9,2.2-1.8,4.1-2,4.1c-0.3,0-0.2-2.2,0.2-4.9c0.6-4.9,3-10.6,17.1-39.8c18-37.4,33-52.5,66.7-66.8
		c6.6-2.8,13.2-6.1,14.6-7.4c3.8-3.4,12-7.7,23.3-12.4c23.5-9.8,49.8-15,82.6-16.4l12.8-0.5l-0.3,2.2c-0.4,3.8,3.5,4.5,29.3,4.7
		c14.9,0.1,26.1,0.6,33.6,1.5c6.2,0.7,18.4,1.6,27.3,2c22.4,1,29.8,2.7,64.4,14.1c9.4,3.1,20.2,6.5,24.2,7.6
		c16.9,4.7,50.9,26.4,69.4,44.2c33.6,32.6,52,67.1,57.4,107.5c1.5,11.6,1.5,49.6,0,58.3c-4.1,23.6-10,40.2-22,61.5
		c-11.7,20.7-25.5,37.7-45.2,55.4c-35.3,32-72.9,49.7-118.3,55.8c-13.8,1.9-41.5,1.9-54.1,0.1c-40.4-6-69-19.7-102.6-49
		c-25.8-22.6-42-44.8-52.3-71.7c-6.9-18-9.5-32.1-9.4-51.3c0-13.9,0.8-21.7,3.7-34c8.4-36.2,38.9-71.2,76.4-87.3
		c9.9-4.3,30-10.4,41.6-12.7c23.1-4.5,47.8-3.7,89.5,3c13,2,13,2,19.7,6.3c18.8,12,35.2,31,47.1,54.6c4.2,8.5,5,10.9,7.5,23.9
		c3.8,18.9,4.4,29.8,2.2,38c-1,3.7-1.6,9.9-1.8,15.6c-0.2,10.4-1.3,14.8-8,32.3c-3.6,9.3-4.6,11-9.5,16.2
		c-16.5,17.7-40.6,30.1-66.8,34.5c-4.8,0.8-7.2,0.6-22.8-1.6c-20.9-3-26.9-4.3-35.5-7.8c-12.3-4.9-22.1-16.1-21.8-25.1
		c0.2-4.1,5.4-52.3,6.1-55.9c0.8-4.5,6.3-13.5,10.9-18.1c2.5-2.3,7.3-6,10.8-8.1c8.5-5,23.2-11,24.5-10c0.6,0.5,3.8,1.2,7.2,1.6
		c6.9,0.9,8.9,2,8.5,4.4c-0.3,1.5-1.1,1.7-7.4,2.1c-9,0.6-23.6,5.4-31.3,10.3c-9.6,6.1-16.8,17.7-19.2,30.6
		c-0.4,2.7-1.5,11.4-2.2,19.3c-0.7,8-1.5,15.2-1.8,16.1c-0.4,1.3,0.8,2.5,4.7,5.2c13.6,9.7,33.9,14.6,60.4,14.6
		c9.7,0,9.8,0,17.5-3.3c11.3-4.9,20-11.4,22.9-17.1c1.4-2.9,7.3-26.5,10.3-41.5c6.1-31.1,4-50.5-7.3-69.1
		c-6.4-10.5-11.7-16.6-18.5-21.4c-16.5-11.7-38.8-18-66.7-18.9c-39.1-1.3-71,7.5-93,25.6c-7.2,6-10.9,10.3-17.8,20.4
		c-9.6,14.2-14.6,26.6-17.3,42.4c-2.2,13.2-1.3,36.6,1.9,49.9c4.7,19.5,12.7,36.8,23.5,50.7c25.2,32.1,57.2,54.6,91.5,64.7
		c16.5,4.9,36.7,7.4,51.4,6.4c10.4-0.6,33.8-3.9,42.5-6c50.9-11.8,99.1-53.9,117.1-102.2c9.8-26.3,7.6-71.8-5.5-110.2
		c-5.8-17.3-18.3-41.1-29.4-56.1c-26.3-35.5-40-46.3-83.3-65.5c-11.7-5.2-15.8-6.6-18.7-6.6c-5.7,0-14.2-2.1-27.2-6.7
		c-16.6-5.9-17.1-6-29.3-6.2c-9.7-0.2-12.9-0.6-25.8-3.6c-13.7-3.1-15.6-3.4-26-3.4c-6.2,0-21.4,0.1-33.7,0.2
		c-24.5,0.1-32.1,0.7-39.6,3.6c-2.7,1-6.8,2-9.1,2.3c-5.2,0.6-8.1,2.6-13.5,9.2c-4.1,4.9-8.9,8.3-10,6.8c-1.3-1.7-5.7-0.6-12,2.8
		c-3.5,2-7.6,3.7-8.9,3.8c-2,0.1-4,1.6-8.2,5.8c-3.1,3.1-7,7.1-8.4,8.9c-1.5,1.8-5.6,6.6-9.1,10.6c-11,12.4-19.4,26.9-23.5,40.6
		c-5.4,17.8-7.9,23-11.1,23c-1.1,0-1.1,0.5-0.3,2.8c0.7,2,0.7,3.9,0,6.8c-1.3,5.5-5.3,13.2-6.7,12.9c-2-0.4-4.5,4.9-3.9,8.5
		c0.3,1.8,0.1,3.5-0.4,3.8c-1.5,0.9-1,2,1,2c1.8,0,1.9,0.3,1.5,4c-0.3,2.6-1,4.3-1.9,4.7c-0.8,0.4-1.9,2.6-2.4,4.9
		c-1,4.3-0.4,8.8,2.3,16.5c0.7,2.2,1.7,8.3,2.2,13.5c0.8,9.2,2.1,14.6,8.5,34.7c1.7,5.1,2.5,9.8,2.7,14.9c0.1,4.1,0.4,8.1,0.8,9
		c1.3,3.8,2.9,5.5,4.9,5.7c1.8,0.2,4.2,3,12.8,15c9.8,13.6,10.5,14.9,9.5,16.8c-1.4,2.7-0.4,6.6,3.3,12.9l3.2,5.2l-4.1-3.5
		c-2.9-2.3-4.1-4.1-4.1-5.5c0-1.6-0.4-2-1.9-2c-1.1,0.1-2.2-0.5-2.5-1.1c-4.5-8.2-8.2-12.4-10.7-11.7c-1.5,0.5,12.8,25,20.6,35.2
		c17.1,22.5,38.7,43,66,62.4c5.4,3.8,7,4.6,9.1,4.3c1.4-0.2,4.7,0.1,7.3,0.6c5.6,1.2,17.1,6,16.5,7c-1,1.3,2.9,3.3,8.5,4.4
		c3.1,0.5,6.6,1.3,7.8,1.6c1.4,0.4,2,0.2,2-0.8c0-0.7,0.2-1.3,0.4-1.3c0.4,0,7.8,2.4,8.3,2.7c0.1,0.1-0.2,1.1-0.6,2.2
		c-1.9,4.2,7.6,11.8,17.8,14.3c2.7,0.7,8.6,2.6,13,4.2c18.7,7,33.5,10,52.4,10.9c28.5,1.3,52.9-2.1,106.5-14.7
		c12.5-3,22.9-5.3,23.1-5.2c0.1,0.2-4.9,2.9-11.2,6.1c-34.2,17.7-59.2,26.2-87.6,30C4296.8,10957.8,4265.1,10958.4,4250.4,10957.3z"
		/>
	<path class="st5" d="M3889.3,10921.5c3.9-3.4,5.5-4.5,6.4-3.8c0.6,0.5,1.7,0.5,2.3,0.2c0.8-0.3,0.9-0.3,0.3,0.2
		c-1.4,1.3-13,8.1-13.7,8.1C3884.3,10926.2,3886.3,10924.1,3889.3,10921.5z"/>
	<path class="st5" d="M4086.2,10878.4c0.4-0.5,1-0.6,1.4-0.4c1.3,0.7,1,1.2-0.6,1.2C4086.3,10879.2,4085.9,10878.8,4086.2,10878.4z"
		/>
	<path class="st5" d="M4717.4,10832.6c-0.6-0.5-21.8-4.1-32.1-5.4c-15.1-1.9-26-2.7-63.5-4.8c-51.6-2.9-49.5-2.6-61.8-7.8
		c-11-4.6-20.8-7.7-29.5-9.2c-4.4-0.8-5.5-1.3-5.8-2.7c-0.8-2.6,1.1-4.1,4.9-4.1c3.8,0,9.7-1.3,10.4-2.4c0.4-0.4-0.5-1.9-1.9-3.3
		c-1.3-1.3-3.6-4.6-5-7.2c-2.5-4.6-2.5-4.7-0.8-6c1-0.7,4.2-1.7,7.2-2.3c6.6-1.3,14.2-0.5,35.3,3.6c25.8,5,47.7,11.5,98.1,29
		c18,6.3,39.6,13.5,48,16.2c18,5.6,19,6.7,5.8,6.7C4721.7,10833,4717.6,10832.9,4717.4,10832.6z"/>
	<path class="st5" d="M3704.5,10797.6c0.8-0.8,50.5-18.9,61.1-22.3c10.5-3.3,26.5-7.5,38.2-9.9l5.8-1.2l-8.9,0.3
		c-4.9,0.2-12.5,0.6-17,0.9c-9.8,0.6-9.4-0.1,2.5-3.9c19.8-6.4,43.8-11.4,71.8-15c14.7-1.8,18.1-2,51.8-2c19.8,0,42.1,0.2,49.7,0.5
		c12.5,0.5,13.4,0.5,12.2,1.8c-2,1.9-1.7,2.4,2.7,6.3c2.2,1.9,4,3.7,4,4c0,1.8-5.5,5.8-12.5,9c-9.7,4.5-10.6,5.7-8,11.4l1.9,4.1
		l-2,1.3c-2.6,1.8-3,1.8-4-0.3c-0.8-1.6-1.7-1.9-7.4-2.2c-5.9-0.3-6.8-0.6-8.6-2.6l-2.1-2.2l-20-0.5c-14.3-0.3-26.3,0-42,0.9
		c-12.1,0.7-31.8,1.6-43.8,2l-21.9,0.5l-34.5,6.4c-19,3.5-41.3,7.7-49.7,9.2c-8.3,1.5-16.2,3-17.5,3.2
		C3705,10797.8,3704.2,10797.8,3704.5,10797.6z"/>
	<path class="st5" d="M4552.4,10685.9c-3-1.3-6.4-3-7.5-3.8l-2.1-1.5l6.5-5.8c18.5-16.4,40.6-24.8,75.3-28.7
		c10-1.1,19.6-1.3,63.4-1.1c57.5,0.2,65.7-0.2,76.8-3.8c4-1.3,7.6-2.3,8-2.3c0.3,0-0.8,1.2-2.4,2.7c-2.1,2-3,3.4-3,5.3
		c0,2.1-0.6,3-3.7,4.9c-15.7,9.9-33.1,15.7-57.5,18.7c-9.8,1.3-26.2,2.3-51,3.6c-33.4,1.6-41.1,2.7-60.4,8.2
		C4571.6,10689,4561.6,10689.8,4552.4,10685.9z"/>
	<path class="st5" d="M3985.7,10673.3c0-1.5,0.2-2.1,0.4-1.3c0.2,0.7,0.2,2,0,2.7C3985.8,10675.4,3985.7,10674.8,3985.7,10673.3z"/>
	<path class="st5" d="M3957.2,10647.9c-2.1-1.3-10.8-1.6-18.7-0.4c-6.7,1-11.5,0.4-14.6-1.9c-1.3-1-3.8-2-5.5-2.3
		c-5.1-0.8-13.9-4.8-24-11c-9.6-5.7-17.7-9.9-19.4-9.9c-0.5,0-1.3-0.9-1.9-2.1c-1.3-3.2-6.7-6-20.1-10.9c-6.6-2.3-15.4-6-19.6-8.1
		c-4.2-2.1-9-4.5-10.7-5.2c-3.8-1.6-12.5-3.5-12.5-2.7c0,0.4,0.5,0.9,1.2,1c0.5,0.2-0.8,0.5-3,0.5c-4.7,0.1-7.1-1.4-4.8-3.1
		c2-1.5,1-2.1-4.4-2.7c-5.4-0.6-7.2-1.6-8.9-4.4c-0.8-1.5-2-2-4.5-2.2c-1.8-0.2-3.3-0.5-3.3-0.9c0-0.4-2.5-1.1-5.6-1.6l-5.5-1l4-0.7
		c6.7-1,7-1.3,3.6-3.1c-1.7-0.9-9.8-5.5-17.9-10.1c-8.1-4.6-17.4-9.6-20.5-11l-5.8-2.7l6.3-0.2c4.4-0.2,10.6,0.5,20.1,2.2
		c7.9,1.4,17.8,2.6,23.2,2.8l9.4,0.3l-4-1.7c-2.2-0.9-9.5-3.4-16.1-5.4c-6.6-2-11.6-3.8-11.2-3.8c0.5-0.1,8.1,1.2,16.8,2.7
		c8.8,1.5,19.7,3.1,24.2,3.5c25.2,2.6,49.1,8.2,82.5,19.3c8.4,2.8,18.3,6.3,21.9,7.8c10,4.1,16.9,6.1,31.1,9.2
		c18.3,4,25.2,6.5,32.9,11.9c3.6,2.4,3.8,2.8,4.4,8.1c0.4,4.1,0.4,5.9-0.5,6.7c-1,1.1-0.8,1.6,1.3,3.1c2.3,1.7,2.4,2,1.5,5.2
		c-2.4,8.5-4.7,10.6-8.6,8.1c-1.8-1.2-3.9-0.4-3.9,1.4c0,1.2,3.8,4.4,5.1,4.4c2.1,0-0.7,5.2-4.6,8.5
		C3962,10649.3,3960.1,10649.7,3957.2,10647.9z"/>
	<path class="st5" d="M4513.7,10557.3c-4.6-0.8-5.7-1.6-3.8-2.7c2-1.1-0.4-2-5-2c-3.8,0-5.3-0.4-6.8-1.7l-1.9-1.6l9.8-8.4
		c20.5-17.5,40.9-28.7,86.7-47.4c12.3-5,27.9-11.6,34.7-14.6c6.7-3,12.3-5.3,12.3-5.2c0,1-5.9,12.6-8.2,16.2
		c-10.9,17.1-30.5,34.7-45.5,40.9c-3.7,1.5-12.9,6.3-20.5,10.7c-14.5,8.4-23.7,12.8-30.4,14.6
		C4529.5,10557.8,4519.4,10558.3,4513.7,10557.3z"/>
	<path class="st5" d="M4026.2,10521c-1.3-1-2.2-2.6-2.2-3.4c0-0.9-2.5-3.3-6.4-6.1c-44.8-31.4-93.2-77.4-144.7-137.2
		c-7.8-9-8.2-9.7-6.6-10.7c1.5-1,1.5-1.2-0.6-3.1c-1.3-1.2-6.3-5.1-11.3-8.6c-4.9-3.6-9.7-7.4-10.6-8.6c-2-2.7-3.2-3.3,22.1,11.7
		c11.2,6.7,20.3,11.8,20.3,11.4c0-1.6-4-7.6-7.9-11.7c-3.8-4-3.5-3.8,3.6,2c15.1,12.4,21.1,16.3,24.6,15.9c2.4-0.2,2.1-0.7-7.8-10
		c-11.3-10.7-11-10.8,1.8-0.8c26.8,21.1,46.8,37.6,109.6,90.9c19.2,16.4,36,30.5,37.4,31.6c3.3,2.6,3,4.7-1.3,11
		c-4.4,6.3-5.2,9.8-3.1,12.6c1.5,2,1.4,2.2-1.9,6.9c-3.6,4.9-8.1,8.4-11.2,8.4C4029.2,10523,4027.4,10522.1,4026.2,10521z"/>
	<path class="st5" d="M4060.3,10510.4c4.4-4.2,23.5-13.2,26.4-12.3c0.4,0.2-2.1,2.2-5.7,4.5c-4.8,3.2-7.2,4.3-9.8,4.5
		c-2.1,0.1-4.7,1-7.1,2.5C4059.8,10512.4,4057.8,10512.8,4060.3,10510.4z"/>
	<path class="st5" d="M4215.5,10470.5c0-0.4,0.6-0.5,1.3-0.3c0.7,0.3,1.3,0.6,1.3,0.8c0,0.2-0.6,0.3-1.3,0.3
		S4215.5,10471,4215.5,10470.5z"/>
	<path class="st5" d="M4370.6,10463.9c-6.5-1.1-18.3-5.3-20-7.3c-0.8-0.8-0.7-1.4,0.4-2.4c1.6-1.6,1.9-3.4,0.4-4.6
		c-0.6-0.5,0.3-3.3,3.2-9.3c5.3-10.7,10.3-22.5,19.2-44.9c17.5-43.9,26.2-61.7,39.9-80.5l4.7-6.6l0.3,7.8c0.6,18.1-1.7,44-6.1,67.2
		c-2.2,11.7-7.2,33.1-9.7,41c-1.2,3.8-1.2,4.5,0.1,6.6c0.7,1.3,1.5,3.4,1.6,4.8c0.2,1.3,0.6,4.5,1,6.9c0.6,4.8,0.4,5.1-3.8,5.6
		c-0.9,0.2-1.7,0.7-1.8,1.3s-0.4,3.4-0.7,6.3l-0.5,5.2l-4.7,1.5C4387.7,10464.7,4378.3,10465.2,4370.6,10463.9z"/>
	<path class="st5" d="M4173.4,10452c-2.7-1.5-5.5-3.1-6.1-3.4c-1-0.5-0.9-1.3,0.6-3.8l1.8-3.2l-8.8-16.7
		c-21.5-40.9-33.2-68.3-69-161.4c-20.4-52.9-22.1-57.8-20.9-59.3l1.3-1.6l3.8,2.3c5,3.1,8.8,6.7,16,15.9c5.2,6.5,7.9,11.4,20.7,38
		c34.2,70.9,52.8,103.6,78.7,138.2c7.1,9.5,8.3,10.7,10.5,10.7c3,0,4.1,1.1,5.3,5.4c0.9,3.7,3.1,6.3,5.4,6.3c0.9,0-0.2,1.3-2.8,3.5
		c-4.2,3.4-4.7,4.1-4.4,6.7c0.2,1.6-6.4,9.5-12.3,14.6c-4.2,3.7-13.6,10.3-14.5,10.3C4178.5,10454.9,4176.1,10453.6,4173.4,10452z"
		/>
</g>
<path class="st6" d="M475,340.9c-2.2,17.2-122.7,30.5-228-3c-24.8-7.9-31.2-12.8-56-18c-95.2-20.1-172.3,15.5-173,13
	c-0.7-2.4,69.3-41.3,171-51C336.2,267.8,477.5,321.6,475,340.9z"/>
<path class="st7" d="M112,372.9"/>
</svg>
